<svg xmlns="http://www.w3.org/2000/svg" width="225.167" height="62.167">
    <path fill="#C6C6C5" d="M6.587 35.333h209.93v20.12H6.588z"/>
    <path fill="none" d="M5.917 10.58H219.75V34.75H5.917z"/>
    <path d="M8.717 11.757h3.192l7.167 13.775 7.112-13.775h3.22v19.6h-2.52l-.03-15.652-6.97 13.58h-1.653l-7.028-13.58v15.652H8.716v-19.6zM49.57 31.356l-2.073-4.76H37.165l-2.044 4.76h-2.827L41 11.756h2.8l8.68 19.6h-2.91zM38.23 24.16h8.23l-4.143-9.52-4.088 9.52zM69.28 11.757h2.66v19.6h-2.715l-11.2-15.176v15.177h-2.688v-19.6h2.716L69.28 26.96V11.757zM92.128 31.356l-2.072-4.76h-10.33l-2.045 4.76h-2.827l8.708-19.6h2.8l8.68 19.6H92.13zm-11.34-7.196h8.233l-4.143-9.52-4.088 9.52zM110.973 21.78h2.38v7.196c-.99.784-2.147 1.41-3.473 1.876s-2.642.7-3.948.7c-1.886 0-3.612-.443-5.18-1.33-1.568-.887-2.805-2.1-3.71-3.64s-1.358-3.225-1.358-5.055c0-1.83.457-3.504 1.372-5.025.915-1.52 2.165-2.72 3.752-3.6 1.586-.876 3.34-1.314 5.264-1.314 1.362 0 2.692.242 3.99.728s2.422 1.148 3.375 1.988l-1.54 1.96c-.785-.73-1.686-1.293-2.703-1.694-1.018-.4-2.058-.602-3.122-.602-1.4 0-2.688.336-3.864 1.008-1.176.672-2.104 1.587-2.786 2.744-.68 1.157-1.022 2.427-1.022 3.808 0 1.382.345 2.655 1.036 3.822.69 1.167 1.624 2.09 2.8 2.77 1.176.683 2.464 1.023 3.864 1.023.82 0 1.656-.136 2.506-.406.85-.27 1.638-.648 2.366-1.134V21.78zM118.45 11.757h13.606v2.436h-10.92v6.048h9.77v2.438h-9.77v6.244h11.256v2.436H118.45v-19.6zM136.732 11.757h3.192l7.168 13.775 7.112-13.775h3.22v19.6h-2.52l-.028-15.652-6.973 13.58h-1.652l-7.026-13.58v15.652h-2.492v-19.6zM163.024 11.757h13.608v2.436h-10.92v6.048h9.77v2.438h-9.77v6.244h11.256v2.436h-13.944v-19.6zM195.252 11.757h2.66v19.6h-2.716l-11.2-15.176v15.177h-2.69v-19.6h2.718l11.228 15.203V11.757z" fill="#C6C6C5"/>
    <path fill="#C6C6C5" d="M201.496 11.757h15.316v2.464h-6.328v17.137h-2.688V14.22h-6.3v-2.463z"/>
    <path fill="none" d="M7.917 38H221.75v24.167H7.917z"/>
    <path d="M20.337 40.42c-.733-.308-1.493-.46-2.28-.46-1.08 0-2.07.26-2.97.78s-1.613 1.23-2.14 2.13c-.527.898-.79 1.883-.79 2.95s.263 2.046.79 2.938c.527.895 1.24 1.604 2.14 2.13s1.89.79 2.97.79c.773 0 1.526-.148 2.26-.45s1.387-.716 1.96-1.25l.84.9c-.694.64-1.487 1.147-2.38 1.52s-1.807.562-2.74.562c-1.32 0-2.534-.32-3.64-.96-1.107-.642-1.983-1.507-2.63-2.6-.647-1.095-.97-2.288-.97-3.58s.327-2.48.98-3.562 1.537-1.936 2.65-2.57c1.113-.633 2.33-.95 3.65-.95.946 0 1.86.18 2.74.53.88.354 1.653.844 2.32 1.47l-.82.962c-.56-.546-1.207-.974-1.94-1.28zM43.387 39.69c1.113.634 1.997 1.49 2.65 2.57s.98 2.267.98 3.56-.327 2.486-.98 3.58-1.537 1.96-2.65 2.6-2.337.96-3.67.96c-1.333 0-2.557-.32-3.67-.96-1.114-.64-1.997-1.506-2.65-2.6s-.98-2.287-.98-3.58.327-2.48.98-3.56 1.537-1.937 2.65-2.57c1.113-.634 2.336-.95 3.67-.95 1.333 0 2.557.316 3.67.95zm-6.61 1.07c-.907.52-1.627 1.226-2.16 2.12-.534.893-.8 1.873-.8 2.94s.266 2.052.8 2.96c.533.906 1.253 1.623 2.16 2.148.906.527 1.893.79 2.96.79 1.053 0 2.03-.263 2.93-.79.9-.525 1.617-1.242 2.15-2.148.533-.908.8-1.895.8-2.96s-.267-2.048-.8-2.94c-.534-.895-1.25-1.6-2.15-2.12-.9-.52-1.877-.78-2.93-.78-1.067 0-2.053.26-2.96.78zM68.197 38.86h1.36v13.98h-1.46L59.437 41v11.84h-1.38V38.86h1.46l8.68 11.842V38.86zM87.857 40.31c-.68-.193-1.32-.29-1.92-.29-.96 0-1.73.19-2.31.57-.58.38-.87.895-.87 1.55 0 .572.16 1.04.48 1.4.32.36.713.643 1.18.85.466.207 1.106.438 1.92.69.946.278 1.71.556 2.29.83s1.073.67 1.48 1.188c.406.52.61 1.207.61 2.06 0 .747-.21 1.407-.63 1.98-.42.573-1.01 1.017-1.77 1.33-.76.313-1.633.47-2.62.47-.973 0-1.923-.19-2.85-.58-.927-.385-1.723-.898-2.39-1.54l.64-1.14c.627.613 1.354 1.094 2.18 1.44.827.347 1.64.52 2.44.52 1.066 0 1.913-.216 2.54-.65.626-.433.94-1.015.94-1.75 0-.585-.16-1.065-.48-1.438s-.713-.66-1.18-.86c-.467-.2-1.12-.433-1.96-.7-.947-.293-1.707-.57-2.28-.83s-1.06-.646-1.46-1.16-.6-1.184-.6-2.01c0-.707.2-1.326.6-1.86s.96-.942 1.68-1.23c.72-.286 1.553-.43 2.5-.43.76 0 1.523.114 2.29.34s1.443.528 2.03.9l-.6 1.18c-.573-.36-1.2-.637-1.88-.83zM104.367 50.52c.78.8 1.863 1.2 3.25 1.2 1.386 0 2.466-.4 3.24-1.2.773-.8 1.16-1.92 1.16-3.36v-8.32h1.38v8.32c0 1.814-.51 3.234-1.53 4.26-1.02 1.027-2.437 1.54-4.25 1.54-1.813 0-3.233-.513-4.26-1.54-1.027-1.025-1.54-2.445-1.54-4.26v-8.32h1.38v8.32c0 1.44.39 2.56 1.17 3.36zM125.476 38.86h1.38V51.6h6.16v1.24h-7.54V38.86zM141.756 38.84h10.62v1.26h-4.62v12.74h-1.38V40.1h-4.62v-1.26zM162.796 38.86h1.38v13.98h-1.38V38.86zM186.715 38.86h1.36v13.98h-1.46L177.955 41v11.84h-1.38V38.86h1.46l8.68 11.842V38.86zM210.316 46h1.22v5.12c-.68.573-1.47 1.024-2.37 1.35s-1.816.49-2.75.49c-1.32 0-2.537-.32-3.65-.96s-1.996-1.506-2.65-2.6c-.652-1.094-.98-2.287-.98-3.58s.328-2.48.98-3.56c.654-1.08 1.544-1.937 2.67-2.57 1.127-.634 2.357-.95 3.69-.95.946 0 1.863.166 2.75.5.887.334 1.67.8 2.35 1.4l-.8.98c-.572-.533-1.232-.943-1.98-1.23s-1.52-.43-2.318-.43c-1.08 0-2.074.264-2.98.79-.907.526-1.627 1.235-2.16 2.13-.533.893-.8 1.873-.8 2.94 0 1.08.267 2.07.8 2.97.533.898 1.256 1.613 2.17 2.14.913.526 1.91.79 2.99.79.666 0 1.33-.11 1.99-.33.66-.22 1.27-.53 1.83-.93V46z" fill="#FFF"/>
</svg>
