<svg xmlns="http://www.w3.org/2000/svg" width="225.167" height="62.167">
    <path d="M9.583 48.833h4.76V15.796h-4.76v-.677h13.81v.676h-4.76v33.04h4.76v.674H9.584v-.677zM25.71 48.833h4.76V15.796h-4.76v-.677h9.178l14.498 26.324h.085V15.796h-4.76v-.677h10.165v.676h-4.76v34.39h-.86L31.2 17.775h-.087v31.06h4.76v.674H25.71v-.677zM78.55 49.51h-.645c-.2-.26-.43-.49-.687-.7-.258-.21-.658-.314-1.2-.314-.43 0-.895.09-1.395.267-.5.178-1.072.38-1.715.604-.643.225-1.366.426-2.167.604-.8.178-1.686.267-2.658.267-1.8 0-3.553-.37-5.253-1.11-1.703-.74-3.31-1.946-4.827-3.622-1.4-1.578-2.573-3.444-3.517-5.604-.943-2.155-1.415-4.65-1.415-7.485 0-2.416.387-4.716 1.16-6.908.77-2.188 1.843-4.12 3.216-5.796 1.373-1.672 2.987-3 4.847-3.983 1.858-.98 3.887-1.473 6.09-1.473.886 0 1.673.096 2.358.29.688.193 1.303.41 1.846.652.542.24 1.043.458 1.5.652.458.193.902.29 1.33.29.573 0 .98-.104 1.224-.313.242-.21.464-.442.665-.7h.644v9.66h-.473c-.257-1.224-.586-2.432-.987-3.624-.4-1.19-.958-2.245-1.673-3.162-.714-.918-1.623-1.658-2.723-2.223-1.1-.562-2.467-.845-4.096-.845-1.516 0-2.817.266-3.903.797-1.087.53-2 1.24-2.745 2.125-.745.886-1.338 1.917-1.78 3.09-.444 1.177-.78 2.416-1.008 3.72-.23 1.305-.38 2.624-.45 3.96-.072 1.338-.108 2.602-.108 3.793 0 3.38.243 6.182.73 8.403.486 2.222 1.165 3.978 2.038 5.265.87 1.29 1.922 2.19 3.15 2.705 1.23.516 2.59.772 4.076.772 1.916 0 3.46-.308 4.632-.917 1.172-.612 2.115-1.41 2.83-2.39.715-.984 1.258-2.095 1.63-3.335.37-1.24.7-2.472.986-3.695h.472V49.51z" fill="#C6C6C5" stroke="#C6C6C6" stroke-miterlimit="10"/>
    <path fill="#C6C6C5" d="M88.56 14.583h1.04v36.334h-1.04z"/>
    <path d="M99.994 29.6h2.22V15.92h-2.22v-.28h6.44v.28h-2.22V29.6h2.22v.28h-6.44v-.28zM107.593 29.6h1.54v-8.02h-1.54v-.28h3.22v2.14h.04c.08-.174.197-.394.35-.66.153-.268.363-.527.63-.78.266-.254.6-.47 1-.65.4-.18.887-.27 1.46-.27.88 0 1.597.212 2.148.64.555.426.83 1.106.83 2.04v5.84h1.54v.28h-4.8v-.28h1.54v-6.46c0-.52-.124-.947-.37-1.28-.245-.334-.63-.5-1.148-.5-.427 0-.834.092-1.22.28-.387.186-.727.446-1.02.78s-.523.726-.69 1.18c-.167.452-.25.946-.25 1.48v4.52h1.54v.28h-4.8v-.28zM118.953 21.298h4.842v.28h-1.642l2.58 6.28 2.68-6.28h-1.64v-.28h3.04v.28h-1.08l-3.78 8.96-3.64-8.96h-1.36v-.28zM131.653 24.918c0 .133-.003.27-.01.41-.007.14-.01.317-.01.53 0 .44.026.9.08 1.38.053.48.17.914.35 1.3.18.386.446.707.8.96s.823.38 1.41.38 1.07-.086 1.45-.26c.38-.174.68-.383.9-.63.22-.247.382-.497.49-.75.104-.253.185-.46.238-.62l.3.06c-.038.147-.116.357-.228.63-.114.273-.295.547-.54.82s-.58.514-1 .72c-.42.206-.964.31-1.632.31-.666 0-1.282-.106-1.85-.32-.566-.213-1.057-.52-1.47-.92-.414-.4-.733-.876-.96-1.43-.23-.553-.34-1.17-.34-1.85 0-.586.115-1.156.35-1.71.232-.553.553-1.043.96-1.47.406-.427.884-.77 1.43-1.03.548-.26 1.134-.39 1.76-.39.374 0 .774.067 1.2.2.428.134.824.35 1.19.65.366.3.673.697.92 1.19s.37 1.106.37 1.84h-6.157zm4.12-.28c.025-.187.04-.36.04-.52v-.5c0-.453-.044-.827-.13-1.12-.088-.293-.207-.527-.36-.7-.153-.173-.34-.296-.56-.37-.22-.073-.457-.11-.71-.11-.454 0-.827.09-1.12.27-.294.18-.527.423-.7.73-.174.307-.304.66-.39 1.06-.088.4-.145.82-.17 1.26h4.1zM139.853 27.08h.22c.095.32.214.642.36.97.146.326.343.626.59.9.246.272.55.496.91.67.36.172.793.26 1.3.26.427 0 .808-.13 1.14-.39.334-.26.5-.684.5-1.272 0-.506-.13-.863-.39-1.07-.26-.207-.563-.37-.91-.49l-1.56-.54c-.2-.067-.417-.15-.65-.25-.232-.1-.45-.24-.648-.42-.2-.18-.364-.41-.49-.69-.127-.28-.19-.64-.19-1.08 0-.373.073-.72.22-1.04.147-.32.348-.6.602-.84.253-.24.557-.426.91-.56.354-.133.736-.2 1.148-.2.293 0 .53.023.71.07.182.047.337.093.472.14.133.047.253.093.36.14.104.047.23.07.378.07.147 0 .254-.053.32-.16h.22v2.28h-.22c-.094-.293-.2-.577-.32-.85s-.263-.517-.43-.73-.373-.38-.62-.5-.536-.18-.87-.18c-.64 0-1.137.144-1.488.43-.354.287-.53.67-.53 1.15 0 .427.15.75.45.97.3.22.742.423 1.33.61l1.46.48c.626.213 1.14.507 1.54.88.398.374.6.867.6 1.48 0 .36-.07.713-.21 1.06-.14.347-.347.65-.62.91s-.605.47-1 .63-.844.24-1.35.24c-.295 0-.562-.03-.81-.09s-.476-.124-.682-.19c-.207-.066-.397-.13-.57-.19-.173-.06-.333-.09-.478-.09-.147 0-.255.03-.32.09s-.12.124-.16.19h-.22v-2.8h-.004zM147.59 21.298h1.542v-2.58c.105.04.207.074.3.1.094.027.254.04.48.04.2 0 .372-.023.52-.07s.286-.123.42-.23v2.74h2.84v.28h-2.84v6.54c0 .373.037.677.11.91.072.233.17.414.29.54.12.127.25.21.39.25s.277.06.41.06c.467 0 .844-.17 1.13-.51.286-.34.47-.73.55-1.17l.28.1c-.04.173-.1.367-.18.58s-.204.417-.37.61c-.168.193-.385.354-.65.48-.268.127-.6.19-1 .19-1 0-1.695-.193-2.09-.58-.395-.387-.59-.933-.59-1.64v-6.36h-1.54v-.28zM154.313 29.6h1.54v-8.02h-1.54v-.28h3.22v2.1h.04c.28-.8.683-1.388 1.21-1.76.526-.374 1.163-.56 1.91-.56.666 0 1.256.145 1.77.44.515.293.852.78 1.01 1.46h.04c.095-.24.222-.474.382-.7.158-.228.36-.43.6-.61s.523-.324.85-.43c.328-.107.697-.16 1.11-.16 1.946 0 2.92.992 2.92 2.98v5.54h1.54v.28h-4.8v-.28h1.54v-6.8c0-.454-.123-.808-.37-1.06-.247-.254-.583-.38-1.01-.38-.334 0-.667.062-1 .19-.334.126-.634.316-.9.57-.266.252-.482.58-.65.98-.165.4-.25.866-.25 1.4v5.1h1.54v.28h-4.8v-.28h1.54v-6.52c0-.588-.12-1.02-.358-1.3-.24-.28-.562-.42-.96-.42-.28 0-.587.07-.92.21-.334.14-.645.36-.932.66s-.525.69-.72 1.17c-.194.48-.29 1.066-.29 1.76v4.44h1.54v.28h-4.8l-.002-.28zM174.233 24.918c0 .133-.003.27-.01.41-.007.14-.01.317-.01.53 0 .44.026.9.08 1.38.053.48.17.914.35 1.3.18.386.446.707.8.96s.823.38 1.41.38 1.07-.086 1.45-.26c.38-.174.68-.383.9-.63.22-.247.382-.497.488-.75.107-.253.188-.46.24-.62l.3.06c-.04.147-.116.357-.228.63-.114.273-.295.547-.54.82s-.58.514-1 .72-.964.31-1.632.31c-.666 0-1.283-.106-1.85-.32-.566-.213-1.057-.52-1.47-.92-.414-.4-.733-.876-.96-1.43-.23-.553-.34-1.17-.34-1.85 0-.586.115-1.156.35-1.71.232-.553.553-1.043.96-1.47.406-.427.884-.77 1.43-1.03.548-.26 1.134-.39 1.76-.39.374 0 .773.067 1.2.2.428.134.823.35 1.19.65.366.3.673.697.92 1.19s.37 1.106.37 1.84h-6.157zm4.12-.28c.025-.187.04-.36.04-.52v-.5c0-.453-.044-.827-.13-1.12-.088-.293-.207-.527-.36-.7-.153-.173-.34-.296-.56-.37-.22-.073-.457-.11-.71-.11-.454 0-.827.09-1.12.27-.295.18-.527.423-.7.73-.174.307-.304.66-.39 1.06-.088.4-.145.82-.17 1.26h4.1zM181.813 29.6h1.54v-8.02h-1.54v-.28h3.22v2.14h.04c.08-.174.197-.394.35-.66.153-.268.364-.527.632-.78.267-.254.6-.47 1-.65.398-.18.887-.27 1.46-.27.88 0 1.597.212 2.15.64.552.426.83 1.106.83 2.04v5.84h1.538v.28h-4.8v-.28h1.54v-6.46c0-.52-.123-.947-.37-1.28-.247-.334-.63-.5-1.15-.5-.427 0-.833.092-1.22.28s-.727.446-1.02.78c-.295.332-.523.726-.69 1.18-.167.452-.25.946-.25 1.48v4.52h1.54v.28h-4.8v-.28zM193.873 21.298h1.54v-2.58c.106.04.208.074.3.1.095.027.254.04.48.04.2 0 .373-.023.52-.07.147-.047.287-.123.42-.23v2.74h2.842v.28h-2.842v6.54c0 .373.037.677.11.91.073.233.17.414.29.54.12.127.25.21.39.25s.278.06.41.06c.468 0 .845-.17 1.13-.51.287-.34.472-.73.552-1.17l.278.1c-.04.173-.1.367-.18.58s-.203.417-.37.61c-.167.193-.384.354-.65.48-.267.127-.6.19-1 .19-1 0-1.695-.193-2.09-.58-.394-.387-.59-.933-.59-1.64v-6.36h-1.54v-.28zM201.313 27.08h.22c.094.32.213.642.36.97.146.326.343.626.59.9.246.272.55.496.91.67.358.172.793.26 1.3.26.428 0 .807-.13 1.14-.39.333-.26.5-.684.5-1.272 0-.506-.13-.863-.39-1.07s-.562-.37-.91-.49l-1.56-.54c-.2-.067-.417-.15-.65-.25-.233-.1-.45-.24-.65-.42-.198-.18-.362-.41-.488-.69-.127-.28-.19-.64-.19-1.08 0-.373.073-.72.22-1.04.147-.32.348-.6.602-.84.253-.24.558-.426.91-.56.353-.133.735-.2 1.15-.2.292 0 .528.023.708.07.182.047.338.093.472.14.133.047.253.093.358.14.106.047.233.07.38.07s.255-.053.32-.16h.22v2.28h-.22c-.094-.293-.2-.577-.32-.85s-.263-.517-.43-.73c-.167-.213-.372-.38-.62-.5-.246-.12-.537-.18-.87-.18-.64 0-1.136.144-1.49.43-.353.287-.528.67-.528 1.15 0 .427.148.75.45.97.3.22.743.423 1.33.61l1.46.48c.626.213 1.14.507 1.54.88.4.374.6.867.6 1.48 0 .36-.07.713-.21 1.06-.14.347-.347.65-.62.91-.272.26-.606.47-1 .63-.394.16-.844.24-1.35.24-.294 0-.563-.03-.812-.09s-.474-.124-.68-.19c-.207-.066-.396-.13-.57-.19-.172-.06-.332-.09-.48-.09s-.253.03-.32.09-.118.124-.16.19h-.22v-2.8h-.002z" fill="#C6C6C5" stroke="#C6C6C6" stroke-miterlimit="10"/>
    <path fill="#C6C6C5" stroke="#C6C6C6" stroke-miterlimit="10" d="M108.394 46.434c.386-.65.65-1.3.79-1.938.14-.642.21-1.28.21-1.92 0-.642-.03-1.15-.09-1.53-.06-.38-.164-.67-.31-.87-.146-.2-.343-.33-.59-.39-.247-.062-.557-.092-.93-.092v-.278h3.8v.278c-.347 0-.627.048-.84.142s-.376.24-.49.438c-.113.2-.187.457-.22.77-.033.314-.05.69-.05 1.132 0 .547-.027 1.033-.08 1.46-.053.427-.127.817-.22 1.17-.094.354-.214.687-.36 1-.147.313-.307.624-.48.93.347.64.653 1.144.92 1.51.267.367.573.55.92.55.213 0 .383-.06.51-.18.126-.12.223-.273.29-.46.066-.187.113-.39.14-.61.026-.22.04-.436.04-.648h.28c0 .56-.073 1.023-.22 1.39-.146.367-.33.665-.55.892-.22.227-.47.387-.75.48-.28.092-.547.14-.8.14-.28 0-.52-.03-.72-.09-.2-.062-.377-.153-.53-.28-.154-.127-.297-.283-.43-.47-.133-.188-.28-.407-.44-.66-.16.16-.36.327-.6.5s-.51.333-.81.478c-.3.146-.63.27-.99.37-.36.102-.747.148-1.16.148-.84 0-1.547-.162-2.12-.488-.573-.327-1.037-.72-1.39-1.182-.354-.46-.604-.944-.75-1.46-.147-.513-.22-.948-.22-1.31 0-.693.123-1.3.37-1.82s.56-.977.94-1.37c.38-.393.796-.734 1.25-1.028.453-.295.893-.56 1.32-.8-.147-.294-.293-.638-.44-1.03-.146-.395-.22-.87-.22-1.432 0-.453.08-.854.24-1.21.16-.353.367-.655.62-.91s.543-.445.87-.58c.326-.132.656-.198.99-.198.507 0 .938.16 1.29.48.353.32.53.82.53 1.5 0 .4-.063.75-.19 1.05-.126.3-.287.562-.48.79-.193.228-.41.42-.65.58-.24.16-.467.3-.68.42l3.48 6.636zm-5.24-5.88c-.694.36-1.248.775-1.66 1.25-.414.474-.62 1.097-.62 1.87 0 .6.105 1.23.32 1.89.212.66.492 1.264.84 1.81.346.548.736 1 1.17 1.352.432.354.87.53 1.31.53.48 0 .93-.117 1.35-.35.42-.234.815-.523 1.19-.87l-3.9-7.482zm.72-3.68c0 .35.096.76.29 1.24.193.48.41.962.65 1.44.227-.135.45-.27.67-.42.22-.146.413-.32.58-.52.167-.2.303-.434.41-.7.107-.268.16-.58.16-.94 0-.452-.11-.853-.33-1.2-.22-.346-.597-.52-1.13-.52-.347 0-.65.154-.91.46-.26.307-.39.694-.39 1.16z"/>
    <path d="M128.128 49.878h-.3c-.095-.106-.2-.203-.32-.29-.12-.087-.308-.13-.56-.13-.2 0-.418.037-.65.108-.233.074-.5.157-.8.25-.3.095-.638.18-1.012.25-.372.074-.786.11-1.24.11-.84 0-1.655-.153-2.448-.46-.793-.308-1.543-.808-2.25-1.5-.653-.652-1.2-1.427-1.64-2.32-.44-.894-.66-1.926-.66-3.1 0-1 .18-1.954.54-2.86.358-.906.858-1.706 1.5-2.398.64-.693 1.393-1.244 2.26-1.65s1.812-.61 2.84-.61c.414 0 .78.04 1.1.12s.607.17.86.27c.253.102.487.19.7.272s.42.12.62.12c.267 0 .456-.044.568-.13.113-.09.218-.185.312-.29h.3v4h-.22c-.12-.508-.273-1.008-.46-1.5-.188-.493-.446-.932-.78-1.31-.333-.382-.756-.69-1.27-.923-.515-.232-1.15-.35-1.91-.35-.707 0-1.313.11-1.82.33-.506.22-.934.514-1.28.88-.347.366-.623.794-.83 1.28-.206.486-.362 1-.47 1.54-.105.54-.176 1.087-.21 1.64-.033.555-.05 1.077-.05 1.57 0 1.4.113 2.56.34 3.48s.543 1.645.95 2.18c.407.533.895.906 1.47 1.12.574.214 1.207.318 1.9.318.893 0 1.612-.126 2.16-.38.547-.253.985-.583 1.32-.99.33-.404.585-.865.76-1.38.172-.513.325-1.022.46-1.528h.22v4.26zM129.648 45.6c0-.655.143-1.263.43-1.82.287-.562.653-1.044 1.102-1.45.445-.408.945-.725 1.498-.95.556-.228 1.1-.34 1.632-.34.532 0 1.075.112 1.63.34.555.227 1.055.542 1.5.95.445.406.813.89 1.102 1.45.285.56.43 1.165.43 1.82 0 .625-.133 1.216-.4 1.77s-.617 1.036-1.05 1.448c-.433.414-.93.74-1.49.98-.56.24-1.134.36-1.72.36-.588 0-1.16-.12-1.72-.36s-1.058-.566-1.49-.98c-.435-.412-.784-.896-1.05-1.45-.27-.552-.404-1.143-.404-1.77zm2 0c0 .944.073 1.698.22 2.26.147.56.34.99.58 1.288.24.3.52.498.84.59.32.094.66.14 1.022.14s.698-.046 1.02-.14c.32-.092.6-.29.84-.59s.435-.73.58-1.29c.147-.56.222-1.31.222-2.26 0-.8-.053-1.47-.16-2.01-.107-.54-.27-.98-.49-1.32-.22-.34-.496-.583-.83-.73-.334-.145-.727-.22-1.18-.22s-.848.074-1.18.22c-.334.147-.61.392-.83.73-.22.34-.383.78-.49 1.32-.11.54-.164 1.21-.164 2.01zM139.968 49.6h1.54v-8.022h-1.54v-.28h3.22v2.142h.04c.08-.174.197-.395.352-.66.15-.268.36-.527.63-.78.267-.253.6-.47 1-.648.398-.18.887-.27 1.46-.27.88 0 1.597.212 2.148.638.555.43.83 1.107.83 2.04v5.84h1.54v.278h-4.8V49.6h1.54v-6.46c0-.522-.123-.947-.37-1.28-.247-.334-.63-.5-1.148-.5-.43 0-.834.093-1.222.28-.388.187-.728.445-1.02.78-.294.33-.523.727-.69 1.18-.167.452-.25.946-.25 1.48v4.52h1.54v.278h-4.8v-.28zM152.408 47.08h.22c.095.318.214.644.36.97.146.327.344.626.59.9s.55.495.91.67.793.26 1.3.26c.427 0 .808-.13 1.14-.392.334-.26.5-.683.5-1.27 0-.506-.13-.863-.39-1.07-.26-.206-.562-.37-.91-.49l-1.56-.54c-.2-.065-.417-.15-.65-.25-.232-.1-.45-.24-.648-.42-.2-.18-.363-.41-.49-.688-.127-.28-.19-.64-.19-1.08 0-.373.073-.72.22-1.04.148-.32.348-.6.602-.84s.557-.427.91-.562c.354-.133.736-.2 1.148-.2.294 0 .53.024.71.07.182.048.338.095.472.142.133.047.253.092.36.14.104.047.23.07.38.07s.253-.054.318-.16h.22v2.28h-.22c-.094-.295-.2-.578-.32-.852-.118-.273-.262-.516-.43-.73-.166-.212-.373-.38-.62-.5s-.536-.18-.87-.18c-.64 0-1.137.144-1.488.43-.354.286-.53.67-.53 1.15 0 .427.15.75.45.97s.743.424 1.33.61l1.46.48c.626.212 1.14.505 1.54.878.398.375.6.867.6 1.48 0 .36-.07.713-.21 1.06-.14.348-.347.65-.62.91-.272.26-.605.47-1 .63-.394.16-.844.24-1.35.24-.294 0-.562-.03-.81-.09-.25-.06-.476-.124-.68-.19-.208-.065-.398-.13-.57-.188-.175-.06-.335-.09-.48-.09-.147 0-.254.03-.32.09-.065.06-.12.123-.16.19h-.22V47.08h-.004zM170.79 49.878h-3.222v-2.02h-.04c-.12.266-.264.536-.43.81-.167.272-.374.52-.62.74-.247.22-.534.398-.86.54-.327.14-.71.21-1.15.21-.532 0-.966-.06-1.3-.182-.332-.12-.592-.246-.778-.38-.095-.066-.197-.148-.312-.25-.113-.1-.217-.236-.31-.41-.095-.173-.175-.395-.24-.67-.067-.27-.1-.61-.1-1.01v-5.68h-1.54v-.28h3.26v6.14c0 .348.02.667.068.96.048.294.138.552.27.77.134.222.308.396.52.522.216.127.495.19.843.19.292 0 .595-.087.907-.26.313-.176.602-.42.86-.74.26-.32.478-.704.65-1.15.173-.446.26-.95.26-1.51v-4.642h-1.52v-.28h3.24V49.6h1.538v.28h.004zM171.425 49.6h1.54V35.737h-1.54v-.28h3.262V49.6h1.54v.278h-4.802v-.28zM176.726 41.298h1.54v-2.58c.106.04.207.074.3.1.094.027.254.04.48.04.2 0 .373-.022.52-.07s.287-.122.42-.228v2.74h2.842v.28h-2.842v6.54c0 .372.037.677.11.91s.17.412.29.538c.12.127.25.21.39.25.142.04.276.06.41.06.467 0 .844-.17 1.13-.51.287-.34.47-.728.55-1.17l.28.1c-.04.176-.1.368-.18.58s-.203.42-.37.61c-.167.193-.384.354-.65.48-.266.125-.6.19-1 .19-1 0-1.696-.194-2.09-.58s-.59-.934-.59-1.64v-6.36h-1.54v-.28zM183.207 49.6h1.54v-8.022h-1.54v-.28h3.262V49.6h1.538v.28h-4.8v-.28zm1.3-12.962c0-.293.103-.543.31-.75s.457-.31.75-.31.543.103.75.31.312.457.312.75-.105.543-.313.75-.457.31-.75.31-.543-.103-.75-.31-.31-.457-.31-.75zM188.667 49.6h1.54v-8.022h-1.54v-.28h3.22v2.142h.04c.08-.174.197-.395.35-.66.153-.268.363-.527.63-.78.27-.253.6-.47 1-.648.4-.18.888-.27 1.462-.27.878 0 1.595.212 2.147.638.555.43.83 1.107.83 2.04v5.84h1.54v.278h-4.8V49.6h1.54v-6.46c0-.522-.124-.947-.37-1.28-.248-.334-.63-.5-1.15-.5-.427 0-.833.093-1.22.28-.388.187-.728.445-1.02.78-.294.33-.524.727-.69 1.18-.168.452-.25.946-.25 1.48v4.52h1.54v.278h-4.8v-.28zM200.867 48.58c0-.36.066-.672.2-.932s.298-.486.49-.68.4-.35.62-.47c.22-.12.416-.22.59-.3-.773-.533-1.16-1.255-1.16-2.16 0-.468.113-.888.34-1.26.227-.373.514-.69.86-.95.347-.262.73-.456 1.15-.592.42-.133.82-.198 1.208-.198.602 0 1.117.12 1.55.358.435.24.75.46.95.66.146-.253.363-.486.65-.7.286-.212.643-.318 1.07-.318.267 0 .513.057.738.17.227.112.342.356.342.73 0 .238-.077.42-.23.538-.152.12-.31.18-.47.18-.188 0-.32-.053-.4-.16-.08-.104-.15-.22-.21-.34-.06-.118-.123-.23-.19-.34-.065-.104-.165-.16-.3-.16-.133 0-.27.058-.41.17-.14.114-.262.244-.368.392.118.134.272.36.46.68s.28.72.28 1.2c0 .4-.102.767-.302 1.1-.2.335-.463.628-.79.882-.327.252-.706.45-1.14.59-.434.14-.877.21-1.33.21-.467 0-.873-.063-1.22-.19-.35-.126-.614-.236-.802-.33-.146.066-.303.14-.47.22-.167.08-.32.18-.46.302-.14.12-.257.264-.35.43-.094.167-.14.357-.14.57 0 .2.038.367.118.5s.185.232.313.3c.126.067.27.114.43.14.16.027.326.04.5.04h3.16c.933 0 1.677.224 2.23.67.552.447.83 1.15.83 2.11 0 .587-.128 1.12-.382 1.602-.252.48-.59.896-1.01 1.25-.42.352-.9.625-1.448.818-.548.193-1.107.29-1.68.29-.522 0-.998-.06-1.432-.18-.434-.12-.81-.283-1.13-.49-.32-.207-.57-.457-.75-.75-.18-.293-.27-.62-.27-.98 0-.347.07-.663.21-.948.14-.287.318-.54.54-.762.22-.22.47-.408.75-.568s.56-.295.84-.4v-.04c-.88 0-1.53-.144-1.95-.43-.416-.29-.623-.782-.623-1.474zm3 1.898l-.53.33s-.34.257-.478.43c-.14.174-.255.377-.34.61-.088.233-.13.522-.13.87 0 .48.082.877.25 1.19.165.31.38.565.64.76.26.193.55.33.87.41s.632.12.938.12c.48 0 .916-.074 1.31-.222.394-.146.733-.343 1.02-.59s.51-.53.66-.85c.154-.32.23-.653.23-1 0-.747-.203-1.278-.608-1.59-.408-.315-.965-.472-1.67-.472h-2.162v.004zm3.24-6.5c0-.307-.02-.616-.06-.93-.042-.312-.124-.6-.25-.86-.128-.26-.32-.47-.58-.63-.26-.16-.61-.24-1.052-.24-.68 0-1.192.207-1.54.62-.347.414-.52 1.095-.52 2.04 0 .4.03.76.09 1.08s.17.598.33.83c.16.234.373.41.64.53.268.12.606.18 1.02.18.694 0 1.19-.216 1.48-.65.293-.432.442-1.09.442-1.97z" fill="#C6C6C5" stroke="#C6C6C6" stroke-miterlimit="10"/>
</svg>
