<svg xmlns="http://www.w3.org/2000/svg" width="225.167" height="62.167">
    <path fill="#C6C6C5" d="M28.15 27.83v17.111c0 .495.154.802.463.918.5.188 1.08.282 1.746.282.782 0 1.223.06 1.317.177.023.022.035.07.035.142 0 .187-.177.28-.53.28-.21 0-.387-.013-.527-.035-1.412-.047-2.293-.07-2.646-.07-.824 0-1.906.023-3.246.07-.66.022-.94.035-.847.035-.354 0-.53-.095-.53-.28 0-.165.518-.284 1.552-.355 1.2-.094 1.892-.28 2.08-.562.118-.188.177-1.035.177-2.537V28.53c0-1.48-.023-2.373-.07-2.678-.14-1.033-.553-1.786-1.234-2.255-.518-.352-1.48-.55-2.893-.598-.19-.014-.332-.05-.426-.106-.177.014-.408.025-.702.036-.73.047-1.177.2-1.34.458l-.106.67v19.9c0 1.01.11 1.61.334 1.796.224.188.98.317 2.276.39.21.024.316.124.316.3 0 .2-.153.3-.46.3-.163 0-.316-.013-.457-.036-1.41-.074-2.624-.108-3.635-.108-1.058 0-2.61.034-4.656.106-.683.022-1.188.035-1.518.035-.353 0-.528-.106-.528-.317 0-.117.064-.188.193-.21s.584-.048 1.36-.07c.73-.144 1.15-.358 1.27-.653.117-.294.177-1.24.177-2.84V25.68v-1.306c-.024-.423-.035-.622-.035-.6 0-.587-.59-.882-1.764-.882-.66 0-.99-.082-.99-.247 0-.164.048-.258.143-.282.095-.022.4-.035.92-.035h-.058 9.334c.056 0 .1.006.146.012.044-.005.085-.013.137-.013.14 0 .646.024 1.517.07.423.025 1.06.036 1.904.036 1.742 0 3.153-.035 4.235-.106l12.382 15.946v-14c0-.565-.093-.925-.28-1.08-.19-.15-.59-.24-1.2-.264l-1.517-.072c-.282-.022-.424-.104-.424-.247 0-.187.212-.28.635-.28h2.293c1.723 0 2.92.006 3.603.018C42.57 15.043 35.103 10 26.458 10c-12.012 0-21.75 9.738-21.75 21.75 0 12.013 9.738 21.75 21.75 21.75 6.49 0 12.31-2.845 16.296-7.353-.847-.922-2.237-2.57-4.18-4.962-3.162-3.893-6.638-8.346-10.425-13.354z"/>
    <path fill="#C6C6C5" d="M44.06 23.387c-.095.14-.13.894-.105 2.257v19.023c2.67-3.612 4.253-8.08 4.253-12.918 0-3.138-.67-6.117-1.865-8.81-.305.017-.706.037-1.215.06-.62.02-.978.15-1.07.387z"/>
    <path fill="none" d="M13.37 22.328h-.058"/>
    <path fill="#C6C6C5" d="M69.882 22.676c0 .162-.118.256-.354.278-1.246.047-2.028.188-2.346.42-.317.23-.665.892-1.04 1.982-.188.513-.47 1.29-.848 2.334-1.247 3.457-3.258 9.29-6.032 17.498-.376 1.18-.646 1.765-.81 1.765-.213 0-.39-.21-.53-.635-.307-.965-.694-2.06-1.165-3.28-.705-1.905-1.657-4.435-2.857-7.585-.518-1.388-1.317-3.445-2.4-6.174-.586-1.483-1.175-3.13-1.762-4.94-.307-.987-.94-1.47-1.905-1.447H46.67c-.283 0-.424-.1-.424-.3 0-.2.423-.3 1.27-.3h10.231c.446 0 .67.106.67.317 0 .188-.412.295-1.234.317-1.34.024-2.01.235-2.01.636 0 .047.2.67.602 1.87 1.798 5.366 3.382 9.756 4.753 13.168.306-.752.87-2.315 1.692-4.69.21-.637.707-2.07 1.484-4.304 1.086-3.196 1.627-5.145 1.627-5.845 0-.42-.174-.663-.527-.733-.142-.022-.683-.046-1.624-.07-.47 0-.705-.115-.705-.35 0-.21.164-.315.493-.315h6.386c.35 0 .527.13.527.384z"/>
    <path fill="#C6C6C5" d="M88.297 40.533l-.035 3.28c-.024 1.13-.042 1.94-.054 2.435-.01.494-.018.73-.018.705-6.208-.28-11.642-.363-16.3-.246H68.93c-.424 0-.635-.088-.635-.267 0-.134.053-.21.16-.233.104-.02.462-.056 1.074-.1 1.106-.07 1.705-.39 1.8-.952.047-.305.07-.646.07-1.02v-17.86c0-1.41-.012-2.185-.034-2.326-.024-.376-.142-.634-.354-.775-.212-.14-.648-.21-1.307-.21-.73 0-1.094-.107-1.094-.318 0-.234.323-.353.97-.353s1.546-.01 2.7-.035c4.325-.094 7.864-.117 10.617-.07h2.4c.517 0 1.15-.035 1.903-.106l.318 3.846c.116 1.223.177 1.976.177 2.258 0 .235-.118.353-.354.353-.235 0-.39-.305-.46-.916-.212-1.622-.867-2.805-1.965-3.546-1.098-.74-2.72-1.11-4.865-1.11-.66 0-1.794.035-3.398.105V33.48c2.602.023 4.238-.158 4.912-.548.674-.388 1.128-1.393 1.364-3.016.118-.87.295-1.306.53-1.306.213 0 .32.212.32.636 0 .423-.035 1.293-.105 2.61-.024.446-.035 1.047-.035 1.8 0 2.02.022 3.55.07 4.586.023.14.035.317.035.53 0 .28-.105.422-.32.422-.164 0-.27-.053-.317-.16-.047-.103-.118-.485-.213-1.145-.236-1.672-.562-2.713-.976-3.123-.413-.41-1.363-.618-2.854-.618H76.65V46h2.267c2.595-.047 4.176-.104 4.742-.176.706-.094 1.39-.353 2.052-.775.59-.472.996-.98 1.22-1.52.224-.54.466-1.54.726-2.997.07-.354.19-.53.354-.53.19 0 .285.176.285.53zM105.76 39.755c0 2.14-.76 3.91-2.276 5.31-1.517 1.4-3.452 2.1-5.803 2.1-1.435 0-3.41-.48-5.927-1.446-.188-.07-.353-.105-.493-.105-.4 0-.706.422-.918 1.27-.07.26-.164.388-.28.388-.19 0-.283-.164-.283-.493 0-.306.057-.847.175-1.623.094-.634.142-1.376.142-2.222 0-.683-.013-1.226-.035-1.624-.047-.8-.07-1.27-.07-1.41 0-.376.117-.563.353-.563s.446.506.634 1.518c.33 1.74 1.07 3.093 2.223 4.057 1.246 1.036 2.587 1.553 4.02 1.553 1.272 0 2.342-.398 3.21-1.198.87-.8 1.307-1.774 1.307-2.93 0-.986-.28-1.773-.847-2.362-.424-.424-1.788-1.258-4.094-2.506-2.563-1.363-4.304-2.728-5.22-4.093-.85-1.246-1.27-2.73-1.27-4.444 0-2.023.717-3.7 2.15-5.027 1.435-1.33 3.246-1.993 5.434-1.993 1.176 0 2.435.282 3.773.846.447.187.766.28.953.28.354 0 .588-.305.705-.916.047-.212.153-.317.318-.317.234 0 .354.153.354.458 0 .117-.024.446-.07.988-.05.542-.07.987-.07 1.342 0 1.222.047 2.257.14 3.104.024.07.036.164.036.28 0 .212-.095.318-.28.318-.212 0-.425-.377-.636-1.13-.213-.752-.582-1.498-1.11-2.24-.53-.74-1.065-1.275-1.606-1.604-.704-.424-1.527-.636-2.468-.636-1.318 0-2.364.318-3.14.953-.777.635-1.165 1.506-1.165 2.61 0 .966.365 1.818 1.094 2.56.73.74 2.13 1.687 4.2 2.84 2.54 1.41 4.22 2.54 5.043 3.388 1.2 1.238 1.796 2.813 1.796 4.717zM127.492 28.857c0 .188-.082.28-.246.28-.26 0-.496-.453-.707-1.36-.423-1.79-1.013-3.01-1.765-3.66-.753-.65-1.95-.978-3.6-.978h-1.657v21.45c.024.587.19.963.5 1.128.308.164 1.142.306 2.494.424.262.02.394.13.394.316 0 .235-.188.354-.564.354-.07 0-.247-.014-.53-.035-.35-.023-.645-.035-.88-.035l-3.635-.105-5.997.178c-.33 0-.494-.096-.494-.283 0-.142.047-.225.142-.248.094-.023.48-.047 1.163-.07 1.295-.047 1.988-.354 2.083-.92.046-.307.07-2.7.07-7.185V23.14h-.918c-1.882 0-3.25.345-4.11 1.035-.857.69-1.416 1.91-1.675 3.665-.165 1.03-.376 1.543-.636 1.543-.21 0-.316-.14-.316-.422 0-.187.047-.834.14-1.94.19-2.304.307-3.88.355-4.728h3.105c.07 0 .888.018 2.45.054 1.563.035 3.558.053 5.98.053 1.342 0 2.54-.01 3.6-.027s2.02-.026 2.894-.026c.776 0 1.364-.02 1.765-.054.07 1.52.246 3.464.53 5.827.042.398.067.643.067.737z"/>
    <path fill="#C6C6C5" d="M155.115 46.458c0 .235-.234.354-.705.354H142.768c-.33 0-.494-.1-.494-.3 0-.2.164-.3.493-.3h1.198c1.082.02 1.74-.165 1.976-.567.07-.116.105-.822.105-2.12v-19.15c-.763 1.953-1.763 5.057-3 9.313l-3.068 10.796c-.377 1.316-.683 1.977-.918 1.977-.258 0-.493-.33-.705-.987L136.1 38.7c-.542-1.62-2.012-6.174-4.41-13.653v18.297c0 1.062.012 1.693.035 1.895.02.2.13.37.316.513.354.307.953.45 1.8.424.847-.02 1.27.107 1.27.39 0 .165-.175.25-.528.25l-3.14-.144c-.54-.022-1.163-.008-1.868.047-.942.064-1.578.097-1.906.097-.492 0-.74-.106-.74-.32 0-.187.2-.282.6-.282.94 0 1.507-.01 1.694-.033.73-.094 1.152-.364 1.27-.812.07-.28.105-.87.105-1.767v-16.86c0-1.883-.11-2.985-.337-3.303-.224-.316-1.062-.477-2.52-.477-.378 0-.565-.106-.565-.318 0-.235.197-.342.598-.318H135.37c.07 0 .2.016.387.046 2.01 6.502 3.71 11.9 5.103 16.196l4.767-16.244h8.578c.47 0 .705.102.705.302 0 .224-.142.324-.424.3h-.812c-.987-.047-1.65.047-1.993.282-.34.235-.51.693-.51 1.376V44.518c0 .85.222 1.335.664 1.464.442.13 1.102.184 1.976.16.866-.023 1.305.083 1.305.316zM175.188 40.533c0 .047-.01 1.143-.034 3.28-.023 1.13-.04 1.94-.054 2.435l-.02.705c-6.206-.28-11.64-.363-16.298-.246h-2.963c-.425 0-.636-.088-.636-.267 0-.134.053-.21.158-.233.105-.02.465-.056 1.076-.1 1.104-.07 1.705-.39 1.8-.952.046-.305.07-.646.07-1.02v-17.86c0-1.41-.014-2.185-.036-2.326-.023-.376-.14-.634-.353-.775-.213-.14-.648-.21-1.307-.21-.73 0-1.096-.107-1.096-.318 0-.234.324-.353.972-.353s1.545-.01 2.697-.035c4.328-.094 7.867-.117 10.62-.07h2.397c.518 0 1.152-.035 1.905-.106l.316 3.846c.116 1.223.176 1.976.176 2.258 0 .235-.117.353-.354.353s-.39-.305-.46-.916c-.213-1.622-.867-2.805-1.966-3.546-1.097-.74-2.718-1.11-4.865-1.11-.66 0-1.794.035-3.397.105V33.48c2.6.023 4.238-.158 4.912-.548.674-.388 1.127-1.393 1.363-3.016.118-.87.297-1.306.532-1.306.213 0 .317.212.317.636 0 .423-.033 1.293-.104 2.61-.023.446-.035 1.047-.035 1.8 0 2.02.023 3.55.07 4.586.02.14.035.317.035.53 0 .28-.106.422-.32.422-.165 0-.27-.053-.316-.16-.047-.103-.117-.485-.213-1.145-.235-1.672-.56-2.713-.975-3.123-.414-.41-1.364-.618-2.854-.618h-2.41V46h2.266c2.595-.047 4.176-.104 4.743-.176.704-.094 1.39-.353 2.05-.775.59-.472.997-.98 1.22-1.52.226-.54.468-1.54.728-2.997.07-.354.188-.53.354-.53.19 0 .286.176.286.53zM199.566 22.68c0 .12-.087.19-.26.213-.174.023-.788.06-1.848.106-.62.02-.98.15-1.07.387-.094.14-.128.894-.104 2.257v20.779c0 .4-.084.6-.248.6-.26 0-1.97-1.945-5.133-5.838-3.164-3.893-6.64-8.346-10.426-13.354v17.111c0 .495.154.802.464.918.5.188 1.082.282 1.747.282.783 0 1.224.06 1.318.177.022.022.034.07.034.142 0 .187-.177.28-.53.28-.21 0-.387-.013-.527-.035-1.412-.047-2.294-.07-2.646-.07-.823 0-1.904.023-3.245.07-.66.022-.94.035-.85.035-.35 0-.526-.095-.526-.28 0-.165.517-.284 1.552-.355 1.2-.094 1.894-.28 2.08-.562.12-.188.18-1.035.18-2.537V28.53c0-1.48-.024-2.373-.07-2.678-.143-1.033-.554-1.786-1.235-2.255-.518-.352-1.48-.55-2.893-.598-.377-.026-.564-.138-.564-.337 0-.224.164-.336.493-.336.14 0 .646.024 1.516.07.424.025 1.06.036 1.905.036 1.74 0 3.152-.035 4.234-.106l12.383 15.946v-14c0-.565-.094-.925-.282-1.08-.188-.15-.59-.24-1.2-.264l-1.516-.072c-.284-.022-.425-.104-.425-.247 0-.187.21-.28.635-.28h2.292c2.377 0 3.765.012 4.165.034.4.023.6.13.6.317zM220.167 28.857c0 .188-.082.28-.246.28-.26 0-.493-.453-.705-1.36-.425-1.79-1.013-3.01-1.765-3.66-.752-.65-1.953-.978-3.6-.978h-1.656v21.45c.023.587.19.963.5 1.128.31.164 1.14.306 2.495.424.262.02.39.13.39.316 0 .235-.187.354-.562.354-.07 0-.247-.014-.528-.035-.354-.023-.646-.035-.883-.035l-3.634-.105-5.996.178c-.33 0-.496-.096-.496-.283 0-.142.05-.225.145-.248.093-.023.48-.047 1.164-.07 1.292-.047 1.985-.354 2.08-.92.046-.307.07-2.7.07-7.185V23.14h-.917c-1.882 0-3.253.345-4.11 1.035-.858.69-1.417 1.91-1.675 3.665-.164 1.03-.377 1.543-.636 1.543-.21 0-.317-.14-.317-.422 0-.187.047-.834.143-1.94.188-2.304.305-3.88.352-4.728H202.885c.07 0 .887.018 2.45.054 1.564.035 3.558.053 5.98.053 1.34 0 2.54-.01 3.6-.027 1.058-.018 2.02-.026 2.894-.026.773 0 1.36-.02 1.764-.054.068 1.52.246 3.464.527 5.827.044.398.067.643.067.737z"/>
</svg>
