<svg xmlns="http://www.w3.org/2000/svg" width="225.167" height="62.167">
    <path d="M51.548 15.806h5.044L44.93 29.87l12.48 15.096h-5.045l-9.933-12.088L32.41 44.964h-5.102l12.55-15.096-11.653-14.062H33.3l9.155 11.137 9.093-11.137zM60.747 15.806h4.175v29.16h-4.175v-29.16zM76.435 15.806h4.175v29.16h-4.175v-29.16zM101.388 15.388c4.505 0 8.258 1.427 11.256 4.278 2.995 2.853 4.492 6.43 4.492 10.73 0 4.3-1.51 7.86-4.534 10.675-3.024 2.82-6.838 4.23-11.44 4.23-4.397 0-8.06-1.407-10.985-4.23-2.926-2.814-4.39-6.347-4.39-10.59 0-4.356 1.472-7.96 4.42-10.814 2.95-2.85 6.676-4.278 11.18-4.278zm.166 3.966c-3.336 0-6.08 1.044-8.23 3.13-2.146 2.088-3.22 4.753-3.22 7.996 0 3.145 1.077 5.762 3.233 7.848 2.155 2.088 4.854 3.13 8.09 3.13 3.253 0 5.972-1.06 8.147-3.19 2.174-2.13 3.265-4.78 3.265-7.953 0-3.09-1.092-5.69-3.266-7.795-2.175-2.113-4.85-3.166-8.02-3.166z" fill="#C6C6C5"/>
    <g fill="#C6C6C5">
        <path d="M134.24 14.675h1.204l-2.784 3.357 2.98 3.602h-1.206l-2.37-2.885-2.393 2.884h-1.216l2.996-3.603-2.78-3.355h1.217l2.182 2.66 2.17-2.66zM135.832 14.666h5.813v.887h-2.427v6.082h-1v-6.082h-2.385v-.887zM142.617 21.634v-6.96h1.743c.704 0 1.26.176 1.677.523.412.35.617.82.617 1.416 0 .404-.102.756-.303 1.05-.2.295-.49.517-.87.663.225.146.44.346.652.598.21.253.512.692.896 1.32.24.395.437.692.582.892l.37.5h-1.188l-.303-.46c-.012-.017-.03-.045-.062-.084l-.19-.275-.313-.508-.332-.544c-.205-.287-.395-.514-.565-.683-.17-.168-.325-.29-.464-.365-.14-.075-.37-.112-.695-.112h-.26v3.03l-.993-.002zm1.295-6.112h-.3v2.197h.38c.506 0 .852-.044 1.04-.13.188-.086.333-.217.438-.392.104-.173.154-.372.154-.594 0-.22-.058-.418-.174-.595-.115-.18-.28-.304-.49-.377-.21-.075-.56-.11-1.048-.11z"/>
        <path d="M150.968 14.636h.7l3.12 7h-1.02l-.928-2.063h-2.97l-.87 2.062h-1.022l2.99-7zm1.467 4.05l-1.122-2.52-1.043 2.52h2.165zM135.2 32.26v1.1c-.73.397-1.575.595-2.53.595-.778 0-1.438-.156-1.98-.47-.54-.31-.97-.74-1.284-1.29-.314-.547-.473-1.14-.473-1.776 0-1.014.36-1.865 1.083-2.558.722-.69 1.614-1.035 2.673-1.035.728 0 1.542.19 2.435.573v1.072c-.812-.464-1.608-.697-2.385-.697-.797 0-1.46.25-1.986.755-.524.503-.79 1.133-.79 1.89 0 .764.26 1.393.778 1.882.518.494 1.182.74 1.988.74.842-.003 1.666-.26 2.47-.783zM139.837 26.818c1.076 0 1.972.34 2.687 1.02.716.682 1.073 1.535 1.073 2.56s-.362 1.877-1.083 2.547c-.724.676-1.632 1.01-2.73 1.01-1.05 0-1.922-.334-2.622-1.01-.7-.67-1.047-1.514-1.047-2.526 0-1.04.35-1.9 1.055-2.58.705-.683 1.594-1.022 2.667-1.022zm.04.946c-.794 0-1.45.248-1.962.746-.514.498-.77 1.135-.77 1.908 0 .75.256 1.373.77 1.873.515.5 1.155.747 1.93.747.778 0 1.425-.254 1.944-.763.518-.508.777-1.142.777-1.896 0-.738-.26-1.358-.778-1.86-.518-.504-1.154-.754-1.912-.754zM150.352 26.917h.946v6.96h-.855l-4.652-5.36v5.36h-.937v-6.96h.808l4.693 5.405v-5.405zM154.51 30.96l-.757-.46c-.477-.29-.812-.575-1.012-.855-.2-.28-.302-.604-.302-.97 0-.547.19-.992.57-1.335.38-.34.873-.513 1.48-.513.58 0 1.114.164 1.6.49v1.13c-.502-.482-1.04-.724-1.618-.724-.327 0-.59.076-.804.227-.205.15-.312.343-.312.578 0 .208.077.403.23.585.155.183.403.373.745.574l.76.45c.847.507 1.272 1.15 1.272 1.935 0 .56-.188 1.014-.562 1.36-.373.35-.858.522-1.457.522-.688 0-1.312-.21-1.877-.633v-1.267c.54.684 1.158 1.023 1.87 1.023.31 0 .57-.088.778-.263.205-.174.31-.39.31-.65.003-.42-.303-.823-.915-1.203zM162.302 26.917h.998v3.95c0 .535-.037.938-.116 1.21-.077.27-.173.496-.288.682-.113.18-.255.34-.42.483-.55.475-1.272.713-2.163.713-.905 0-1.634-.234-2.18-.71-.17-.143-.308-.31-.423-.485-.115-.183-.21-.403-.283-.667-.074-.262-.11-.674-.11-1.233v-3.942h1v3.95c0 .652.074 1.11.224 1.364.15.256.38.46.684.613.308.158.668.234 1.083.234.59 0 1.072-.157 1.443-.468.194-.162.336-.36.424-.588.088-.227.13-.612.13-1.16v-3.947h-.002zM164.683 26.917h.997v6.053h3.133v.906h-4.128v-6.96h-.002zM168.068 26.906h5.814v.887h-2.428v6.083h-.998v-6.083h-2.387v-.887h-.002zM174.833 26.917h.998v6.96h-.997v-6.96zM182.902 26.917h.947v6.96h-.856l-4.652-5.36v5.36h-.936v-6.96h.805l4.692 5.405v-5.405zM189.1 30.45h2.335v2.948c-.857.37-1.707.557-2.55.557-1.154 0-2.074-.334-2.765-1.01-.688-.67-1.033-1.5-1.033-2.485 0-1.04.357-1.904 1.072-2.596.712-.692 1.607-1.036 2.685-1.036.39 0 .765.042 1.115.128.35.083.797.24 1.336.465v1.018c-.832-.482-1.655-.723-2.473-.723-.76 0-1.402.26-1.923.776-.52.52-.782 1.155-.782 1.91 0 .79.262 1.436.782 1.937.52.5 1.192.75 2.015.75.396 0 .873-.09 1.428-.272l.096-.028v-1.45h-1.34v-.887zM131.558 46.12h-2.355v-6.96h1.822c.574 0 1.02.076 1.346.232.322.154.568.365.737.637.17.27.255.583.255.938 0 .686-.354 1.174-1.062 1.47.508.095.914.306 1.213.628s.45.707.45 1.154c0 .355-.09.674-.276.953-.18.277-.45.506-.803.68-.35.176-.795.266-1.326.266zm-.503-6.076h-.856v2.094h.66c.533 0 .91-.102 1.134-.303.225-.205.336-.467.336-.79 0-.667-.424-1-1.275-1zm.073 2.98h-.933v2.206h.98c.545 0 .915-.04 1.108-.127.194-.084.35-.217.47-.395.116-.18.176-.375.176-.578 0-.215-.063-.408-.188-.584-.125-.178-.3-.31-.53-.394-.222-.084-.587-.13-1.084-.13zM139.79 39.16h.997v3.95c0 .534-.037.938-.117 1.208-.078.273-.172.498-.287.682-.114.18-.256.342-.422.488-.55.473-1.27.71-2.16.71-.906 0-1.636-.235-2.18-.708-.17-.146-.31-.31-.423-.488-.115-.182-.21-.4-.283-.666-.076-.262-.11-.674-.11-1.233v-3.938h.997v3.948c0 .654.077 1.106.226 1.363.15.258.378.46.684.614.31.154.668.232 1.084.232.588 0 1.072-.154 1.44-.465.197-.166.34-.36.427-.586.087-.228.13-.614.13-1.16v-3.95zM143.89 43.2l-.758-.458c-.477-.29-.812-.574-1.014-.854-.2-.283-.302-.605-.302-.97 0-.548.19-.993.57-1.335.38-.344.876-.515 1.48-.515.58 0 1.114.164 1.6.488v1.13c-.5-.48-1.04-.725-1.617-.725-.326 0-.594.077-.803.23s-.313.344-.313.58c0 .208.076.402.23.585.155.18.403.373.743.57l.76.452c.852.506 1.273 1.15 1.273 1.935 0 .56-.186 1.013-.56 1.36-.373.35-.86.523-1.46.523-.686 0-1.31-.21-1.875-.635V44.3c.537.68 1.16 1.02 1.87 1.02.31 0 .57-.085.776-.26.21-.176.313-.393.313-.652.003-.422-.302-.826-.914-1.207zM146.85 39.16h.996v6.96h-.997v-6.96zM154.917 39.16h.947v6.96h-.855l-4.652-5.36v5.36h-.938v-6.96h.81l4.688 5.404V39.16zM157.355 39.16h3.945v.885h-2.95v2.123h2.85v.894h-2.85v2.162h3.045v.887h-4.04v-6.95zM164.177 43.2l-.756-.458c-.476-.29-.81-.574-1.013-.854-.2-.283-.303-.605-.303-.97 0-.548.19-.993.57-1.335.383-.344.875-.515 1.482-.515.58 0 1.112.164 1.6.488v1.13c-.502-.48-1.043-.725-1.618-.725-.327 0-.593.077-.804.23-.207.15-.312.344-.312.58 0 .208.076.402.232.585.152.18.4.373.742.57l.758.452c.852.506 1.277 1.15 1.277 1.935 0 .56-.187 1.013-.56 1.36-.373.35-.86.523-1.458.523-.688 0-1.312-.21-1.88-.635V44.3c.54.68 1.16 1.02 1.872 1.02.312 0 .57-.085.78-.26.206-.176.31-.393.31-.652 0-.422-.305-.826-.917-1.207zM168.85 43.2l-.76-.458c-.474-.29-.81-.574-1.01-.854-.202-.283-.304-.605-.304-.97 0-.548.19-.993.572-1.335.38-.344.872-.515 1.48-.515.58 0 1.114.164 1.6.488v1.13c-.5-.48-1.042-.725-1.618-.725-.327 0-.592.077-.803.23-.21.15-.312.344-.312.58 0 .208.077.402.23.585.156.18.404.373.744.57l.76.452c.848.506 1.272 1.15 1.272 1.935 0 .56-.187 1.013-.562 1.36-.373.35-.857.523-1.456.523-.688 0-1.312-.21-1.877-.635V44.3c.538.68 1.157 1.02 1.868 1.02.312 0 .57-.085.78-.26.206-.176.31-.393.31-.652.002-.422-.305-.826-.916-1.207z"/>
    </g>
</svg>
