<svg xmlns="http://www.w3.org/2000/svg" width="225.167" height="62.167">
    <path fill="#E5E5E5" d="M28.405 31.14l-6.243-6.245 6.244-6.243 6.242 6.244z"/>
    <path fill="#C6C6C5" d="M36.26 38.99l-6.244-6.242 6.243-6.243 6.242 6.243zM20.65 38.896l-6.244-6.243 6.243-6.243 6.242 6.243zM28.5 46.745L22.26 40.5l6.244-6.244 6.244 6.245z"/>
    <path d="M63.764 12.607v1.106h-6.192V29.72h-2.875V13.714h-6.204v-1.106h15.27zM68.408 18.935c.794-.893 1.622-1.563 2.48-2.01.86-.445 1.737-.668 2.63-.668.458 0 .89.104 1.296.312.406.208.757.493 1.056.853.3.36.536.785.708 1.272.172.488.258 1.006.258 1.555v9.472H74.22v-9.03c0-.868-.196-1.527-.59-1.977-.392-.45-.9-.676-1.522-.676-.278 0-.574.043-.885.134-.31.09-.626.22-.945.387-.32.17-.637.37-.952.604-.316.233-.62.493-.915.78v9.78h-2.616V10.52l1.867-.75h.75v9.165h-.002zM85.755 30.002c-.892 0-1.73-.166-2.512-.503-.783-.337-1.466-.793-2.052-1.37-.584-.58-1.048-1.252-1.387-2.027-.34-.773-.51-1.604-.51-2.49 0-1.054.155-2.032.468-2.934.312-.903.75-1.68 1.316-2.336.565-.656 1.246-1.168 2.046-1.535.798-.37 1.684-.554 2.66-.554.867 0 1.662.152 2.383.455.72.304 1.338.71 1.855 1.223.517.513.916 1.103 1.204 1.776.286.67.43 1.375.43 2.112h-9.84c0 .885.115 1.706.345 2.462.228.757.547 1.41.958 1.96.41.547.9.977 1.474 1.29.573.31 1.2.466 1.88.466.573 0 1.12-.09 1.645-.276.522-.183.997-.424 1.423-.724.425-.3.788-.642 1.087-1.03.3-.39.51-.79.633-1.198l.75.33c-.19.682-.494 1.317-.915 1.91-.42.595-.912 1.113-1.475 1.556-.56.44-1.174.792-1.843 1.05-.67.256-1.342.384-2.022.384zm2.617-9.238c0-.5-.087-.964-.264-1.394s-.417-.802-.726-1.118c-.306-.315-.668-.565-1.08-.745-.414-.18-.86-.27-1.334-.27-.393 0-.772.09-1.135.27-.364.18-.69.425-.97.738-.283.31-.518.682-.7 1.112-.185.43-.298.896-.338 1.395l6.547.012zM105.08 21.22c0 1.203.18 2.28.54 3.23.36.95.855 1.754 1.486 2.413.632.66 1.378 1.165 2.242 1.513.863.348 1.8.522 2.808.522.598 0 1.176-.117 1.73-.35.56-.235 1.076-.536 1.556-.91.48-.373.908-.795 1.286-1.266.374-.47.688-.948.933-1.43l1.203.774c-.352.573-.768 1.126-1.245 1.66-.48.53-1.034 1-1.666 1.405-.632.407-1.344.73-2.136.977-.793.245-1.684.37-2.667.37-.942 0-1.833-.11-2.668-.326-.835-.217-1.603-.52-2.303-.91-.702-.39-1.327-.857-1.882-1.405-.552-.548-1.02-1.152-1.4-1.812-.38-.66-.674-1.366-.878-2.12-.206-.753-.307-1.53-.307-2.335 0-.803.104-1.582.314-2.34.208-.756.506-1.47.896-2.138.39-.667.866-1.278 1.43-1.836.567-.557 1.204-1.034 1.91-1.432.71-.397 1.487-.706 2.33-.927.84-.222 1.744-.332 2.702-.332.91 0 1.745.123 2.51.368.767.246 1.467.572 2.103.978.635.406 1.198.874 1.69 1.407.49.532.91 1.085 1.263 1.657l-1.24.835c-.72-1.383-1.522-2.4-2.408-3.046-.884-.645-1.898-.97-3.046-.97-.99 0-1.916.18-2.775.54-.86.36-1.61.878-2.248 1.55-.64.67-1.143 1.485-1.51 2.443-.37.96-.552 2.043-.552 3.246zM121.812 16.526h2.604v2.495c.254-.368.528-.72.823-1.058.294-.334.602-.63.92-.884.32-.253.648-.454.99-.6.34-.148.686-.222 1.036-.222.287 0 .554.042.8.13.246.083.46.198.645.343.187.142.33.31.438.502.105.194.158.396.158.61 0 .425-.133.746-.398.963-.268.217-.637.326-1.113.326-.295 0-.53-.03-.705-.09-.177-.063-.337-.13-.48-.21-.143-.077-.29-.145-.437-.207-.146-.062-.33-.09-.552-.09-.17 0-.346.05-.522.152-.176.103-.353.246-.526.43-.178.185-.355.4-.534.65-.18.25-.36.523-.54.817v9.14h-2.605V16.526zM138.042 30.002c-1.01 0-1.94-.177-2.795-.526-.855-.353-1.594-.832-2.212-1.438-.62-.605-1.102-1.315-1.45-2.13-.35-.815-.52-1.686-.52-2.61 0-.976.172-1.892.52-2.748.35-.855.83-1.6 1.45-2.235s1.355-1.136 2.212-1.504c.855-.37 1.788-.553 2.795-.553 1.006 0 1.935.168 2.782.504.848.336 1.583.798 2.205 1.382.622.585 1.105 1.274 1.455 2.065.35.792.52 1.635.52 2.537 0 1-.172 1.94-.52 2.82-.35.88-.833 1.65-1.456 2.31-.623.66-1.358 1.178-2.206 1.56-.848.378-1.777.568-2.782.568zm.49-.97c.518 0 .99-.132 1.42-.4.43-.263.802-.62 1.117-1.068.313-.446.56-.967.73-1.566.172-.6.257-1.23.257-1.894 0-.958-.082-1.852-.246-2.683-.162-.83-.43-1.558-.798-2.18-.368-.623-.848-1.11-1.437-1.467-.59-.356-1.314-.534-2.176-.534-.443 0-.868.126-1.28.38-.41.253-.77.602-1.086 1.044-.315.442-.567.96-.755 1.547-.19.59-.284 1.218-.284 1.88 0 .96.104 1.86.307 2.703.205.845.5 1.578.886 2.206.384.626.857 1.123 1.424 1.485.566.365 1.206.548 1.918.548zM151.74 29.095c.358 0 .69-.055.995-.166.303-.11.562-.257.78-.438.216-.18.386-.39.51-.625.122-.24.185-.48.185-.726 0-.4-.102-.75-.302-1.05s-.467-.57-.8-.81c-.332-.24-.71-.46-1.137-.656-.423-.196-.854-.4-1.294-.61-.44-.207-.872-.432-1.297-.675-.43-.243-.804-.522-1.138-.836-.332-.314-.598-.68-.8-1.094s-.3-.902-.3-1.467c0-.532.11-1.023.336-1.473.226-.45.537-.84.934-1.167.398-.328.873-.583 1.426-.768.553-.186 1.156-.277 1.813-.277.434 0 .844.03 1.23.09.385.063.758.182 1.125.358.36.176.728.422 1.09.745.366.318.746.74 1.138 1.252l-.958.86c-.5-.82-1.06-1.43-1.68-1.83-.618-.402-1.278-.604-1.983-.604-.366 0-.708.048-1.02.142-.31.094-.577.22-.798.38-.222.16-.394.347-.518.56-.123.212-.183.437-.183.675 0 .393.108.738.33 1.032.22.294.513.562.872.798.36.24.77.458 1.23.658s.927.405 1.41.614c.484.208.955.432 1.414.67.457.237.866.514 1.228.83.358.314.65.68.87 1.092.223.413.333.895.333 1.443 0 .558-.103 1.08-.31 1.568-.21.487-.525.91-.94 1.265-.42.357-.946.636-1.58.843-.634.203-1.373.305-2.217.305-.386 0-.78-.03-1.187-.09-.406-.062-.814-.182-1.23-.357s-.826-.423-1.24-.743c-.414-.32-.817-.738-1.21-1.254l1.068-.97c.32.45.63.833.923 1.148.292.315.59.574.89.773.3.202.61.35.934.443.332.093.682.142 1.06.142zM163.645 29.095c.36 0 .69-.055.995-.166.304-.11.564-.257.78-.438.215-.18.387-.39.51-.625.123-.24.186-.48.186-.726 0-.4-.1-.75-.302-1.05-.2-.298-.468-.57-.8-.81-.332-.24-.71-.46-1.137-.656-.424-.196-.856-.4-1.296-.61-.437-.207-.87-.432-1.295-.675-.427-.243-.804-.522-1.137-.836-.33-.314-.598-.68-.798-1.094-.2-.413-.304-.902-.304-1.467 0-.532.113-1.023.338-1.473.227-.45.537-.84.935-1.167.395-.328.87-.583 1.424-.768.554-.186 1.157-.277 1.812-.277.435 0 .845.03 1.23.09.384.063.76.182 1.123.358s.728.422 1.092.745c.365.318.744.74 1.137 1.252l-.96.86c-.5-.82-1.06-1.43-1.678-1.83-.618-.402-1.28-.604-1.983-.604-.37 0-.71.048-1.022.142-.31.094-.578.22-.8.38-.22.16-.392.347-.517.56-.12.212-.183.437-.183.675 0 .393.11.738.33 1.032.224.294.514.562.873.798.36.24.77.458 1.228.658l1.413.614c.485.208.957.432 1.415.67.458.237.867.514 1.23.83.358.314.648.68.87 1.092.22.413.332.895.332 1.443 0 .558-.104 1.08-.313 1.568-.207.487-.52.91-.938 1.265-.42.357-.945.636-1.578.843-.635.203-1.376.305-2.22.305-.384 0-.78-.03-1.187-.09-.402-.062-.812-.182-1.228-.357-.413-.176-.828-.423-1.24-.743-.412-.32-.816-.738-1.21-1.254l1.07-.97c.32.45.626.833.92 1.148.295.315.59.574.893.773.298.202.606.35.933.443.33.093.678.142 1.057.142zM172.55 16.526l4.18 9.632 4.15-9.632 4.166 9.632 3.698-9.632h1.253l-5.38 13.342h-.9l-3.684-8.635-3.71 8.635h-.823l-5.773-13.342h2.824zM197.786 30.002c-1.008 0-1.94-.177-2.795-.526-.853-.353-1.592-.832-2.21-1.438-.62-.605-1.102-1.315-1.45-2.13-.35-.815-.522-1.686-.522-2.61 0-.976.173-1.892.523-2.748.35-.855.83-1.6 1.45-2.235.618-.634 1.355-1.136 2.21-1.504.857-.37 1.79-.553 2.796-.553 1.008 0 1.936.168 2.784.504.847.336 1.583.798 2.204 1.382.623.585 1.106 1.274 1.457 2.065.35.792.522 1.635.522 2.537 0 1-.174 1.94-.52 2.82-.352.88-.835 1.65-1.458 2.31-.62.66-1.357 1.178-2.204 1.56-.85.378-1.777.568-2.784.568zm.492-.97c.516 0 .99-.132 1.418-.4.43-.263.803-.62 1.118-1.068.314-.446.56-.967.73-1.566.174-.6.258-1.23.258-1.894 0-.958-.08-1.852-.246-2.683-.163-.83-.43-1.558-.798-2.18-.37-.623-.85-1.11-1.438-1.467-.59-.356-1.315-.534-2.175-.534-.442 0-.87.126-1.278.38-.41.253-.772.602-1.09 1.044-.312.442-.564.96-.753 1.547-.188.59-.282 1.218-.282 1.88 0 .96.103 1.86.307 2.703.203.845.498 1.578.884 2.206.385.626.86 1.123 1.426 1.485.566.365 1.205.548 1.918.548z" fill="#C6C6C5"/>
    <path d="M54.787 34.748h2.875v16.008h8.61v1.105H54.788V34.75zM78.276 51.86h-2.628v-1.804c-.31.238-.616.48-.915.725-.3.248-.623.472-.97.675-.348.208-.732.373-1.154.5-.424.127-.912.19-1.47.19-.516 0-.982-.084-1.4-.25-.417-.168-.773-.4-1.068-.694-.296-.292-.52-.642-.676-1.042-.156-.402-.233-.836-.233-1.305 0-.562.113-1.074.337-1.526.225-.457.533-.863.922-1.225.387-.357.843-.678 1.362-.957.52-.28 1.07-.528 1.652-.75.582-.22 1.182-.417 1.8-.59.62-.17 1.222-.33 1.812-.476v-.83c0-.597-.06-1.103-.18-1.518-.117-.413-.288-.747-.51-1-.22-.256-.49-.438-.802-.548-.316-.11-.67-.166-1.064-.166-.442 0-.802.058-1.08.172-.28.115-.5.266-.658.456-.16.188-.268.403-.325.644-.06.243-.087.484-.087.73 0 .23-.02.452-.055.664-.038.213-.105.4-.204.56-.098.16-.23.288-.4.387-.166.1-.382.148-.644.148-.205 0-.39-.04-.56-.117-.166-.078-.31-.187-.435-.324-.123-.14-.217-.302-.282-.49-.065-.19-.098-.394-.098-.616 0-.434.143-.84.43-1.216.286-.376.67-.702 1.155-.976.483-.273 1.05-.49 1.695-.65.646-.16 1.327-.24 2.04-.24.867 0 1.6.08 2.2.25.596.168 1.08.405 1.45.706.37.303.633.673.797 1.106.164.435.246.912.246 1.438v9.962h-.002zm-2.63-7.69c-.376.123-.767.263-1.172.42-.406.152-.803.327-1.192.52-.388.194-.76.4-1.11.626-.354.228-.663.466-.93.72-.266.253-.476.524-.633.81-.157.288-.233.587-.233.897 0 .32.06.625.177.915.12.29.277.546.473.76.196.218.424.392.682.52.258.127.525.19.804.19.296 0 .576-.04.84-.12.267-.077.525-.18.775-.31.248-.132.5-.284.747-.462.25-.176.505-.364.77-.56V44.17zM83.192 38.667l4.176 9.63 4.152-9.63 4.165 9.63 3.698-9.63h1.253l-5.38 13.342h-.896l-3.685-8.637-3.71 8.636h-.824l-5.773-13.343h2.825zM115.22 52.144c-.86 0-1.67-.17-2.428-.51-.757-.34-1.416-.805-1.978-1.394-.562-.59-1.004-1.283-1.327-2.077-.325-.794-.486-1.64-.486-2.543 0-1 .18-1.937.536-2.813.356-.876.845-1.64 1.468-2.298.622-.654 1.348-1.172 2.173-1.547.827-.378 1.718-.566 2.667-.566.738 0 1.417.08 2.04.24.622.16 1.158.38 1.61.662.45.283.8.617 1.055 1 .255.386.382.8.382 1.243 0 .195-.052.383-.155.56-.1.176-.235.33-.398.46-.163.133-.35.237-.56.313-.21.078-.42.116-.635.116-.237 0-.45-.04-.638-.13-.19-.085-.35-.196-.483-.33-.138-.138-.24-.29-.308-.464-.07-.17-.105-.346-.105-.525 0-.305-.03-.586-.097-.855-.064-.265-.18-.493-.346-.688-.163-.194-.39-.344-.675-.455-.287-.11-.65-.165-1.094-.165-.597 0-1.132.12-1.61.36-.472.243-.875.567-1.2.978-.33.41-.58.89-.75 1.444-.173.55-.26 1.14-.26 1.762 0 .843.11 1.643.333 2.396.222.754.53 1.413.933 1.977.403.566.886 1.015 1.45 1.347.565.332 1.195.498 1.893.498.615 0 1.148-.096 1.598-.29.45-.192.84-.452 1.175-.778.33-.328.615-.71.853-1.144.24-.434.45-.893.64-1.376l.785.318c-.223.827-.52 1.57-.896 2.224-.377.656-.822 1.21-1.333 1.66-.513.45-1.093.795-1.734 1.03-.646.24-1.343.358-2.097.358zM130.66 52.144c-1.006 0-1.94-.177-2.793-.528-.855-.352-1.593-.83-2.21-1.438-.62-.606-1.103-1.314-1.452-2.13-.35-.814-.522-1.686-.522-2.61 0-.975.174-1.892.522-2.746.35-.855.832-1.602 1.45-2.236.62-.634 1.355-1.136 2.212-1.504s1.788-.554 2.794-.554c1.008 0 1.936.17 2.784.506.85.334 1.583.796 2.205 1.38.622.585 1.106 1.274 1.456 2.065.348.79.52 1.633.52 2.536 0 1-.173 1.94-.52 2.818-.35.88-.834 1.65-1.457 2.31-.623.66-1.357 1.18-2.206 1.562-.85.376-1.776.568-2.783.568zm.493-.97c.518 0 .99-.135 1.42-.402.43-.264.8-.62 1.118-1.067.314-.446.56-.968.732-1.567.172-.598.256-1.23.256-1.894 0-.956-.082-1.852-.246-2.682-.163-.833-.43-1.56-.798-2.182s-.848-1.11-1.437-1.47c-.59-.353-1.315-.53-2.176-.53-.442 0-.867.127-1.277.38s-.772.603-1.088 1.044c-.313.443-.566.958-.755 1.548-.188.59-.282 1.218-.282 1.88 0 .96.103 1.86.307 2.702.203.845.5 1.578.885 2.207.386.626.86 1.123 1.425 1.484.566.37 1.205.55 1.918.55zM140.146 38.667h2.617v2.406c.794-.893 1.624-1.562 2.48-2.01.86-.444 1.74-.67 2.63-.67.46 0 .892.105 1.296.313.406.21.756.495 1.056.855s.536.786.713 1.274c.176.486.264 1.004.264 1.555v9.47h-2.63V42.83c0-.87-.197-1.528-.59-1.98-.393-.448-.895-.673-1.51-.673-.278 0-.575.042-.886.133s-.625.22-.946.387c-.317.168-.638.37-.958.602-.32.233-.628.493-.92.78v9.78h-2.618V38.666zM162.467 38.667v1.105h-3.525V51.86h-2.63V39.773h-2.762v-1.105h2.762v-1.55c0-.72.13-1.397.388-2.03.258-.635.607-1.19 1.05-1.66.443-.47.964-.842 1.562-1.11.598-.272 1.237-.407 1.914-.407.582 0 1.104.06 1.555.18.458.12.84.278 1.15.48.312.2.55.437.713.71.163.277.247.57.247.88 0 .195-.037.37-.11.522-.074.153-.172.282-.297.388-.12.106-.266.19-.43.246s-.336.086-.517.086c-.318 0-.562-.062-.73-.185-.168-.126-.296-.28-.387-.47-.09-.187-.163-.39-.216-.607-.055-.218-.13-.418-.228-.608s-.24-.345-.424-.466c-.185-.124-.448-.187-.792-.187-.26 0-.507.077-.73.227-.227.153-.418.353-.578.597-.16.246-.285.53-.375.847-.09.322-.136.648-.136.984v3.133h3.527zM167.022 31.91c.207 0 .4.034.584.104.185.068.345.164.48.28.137.12.244.26.324.42.082.16.123.33.123.51 0 .182-.04.35-.123.51s-.19.3-.325.418c-.135.12-.295.212-.48.282-.185.07-.376.104-.583.104-.203 0-.396-.034-.576-.104s-.338-.162-.474-.282-.243-.258-.326-.418c-.08-.16-.122-.328-.122-.51 0-.18.04-.35.122-.51.083-.16.193-.3.326-.42.138-.116.295-.212.474-.28.18-.068.373-.104.576-.104zm-1.275 7.237l1.845-.75h.76V51.86h-2.604V39.148zM173.054 38.667h2.604v2.494c.253-.368.527-.72.823-1.057.297-.335.603-.632.92-.885.32-.254.65-.455.99-.6.34-.147.688-.223 1.038-.223.286 0 .554.043.8.13.247.084.463.2.644.343.186.146.33.313.437.505.105.193.16.396.16.61 0 .424-.135.745-.4.962-.267.218-.638.326-1.113.326-.295 0-.53-.03-.706-.09-.175-.06-.335-.13-.478-.21s-.29-.146-.438-.207c-.146-.062-.33-.093-.55-.093-.174 0-.348.053-.524.153-.177.104-.354.246-.526.43-.178.186-.355.4-.534.65-.182.252-.36.523-.54.818v9.14h-2.605V38.667zM183.657 38.667h2.615v2.47c.337-.37.714-.718 1.137-1.045.42-.328.854-.62 1.302-.873.445-.255.896-.456 1.346-.602.45-.146.877-.222 1.276-.222.394 0 .79.07 1.188.21.397.137.766.333 1.104.58.34.25.634.548.88.886.243.34.405.71.478 1.112.222-.386.522-.746.9-1.086.382-.342.807-.634 1.274-.886.467-.25.958-.45 1.475-.595.514-.146 1.02-.222 1.52-.222s.97.11 1.406.33c.437.223.822.522 1.148.894.328.37.586.808.772 1.312.19.503.285 1.037.285 1.604v9.323h-2.63v-8.943c0-.368-.062-.72-.19-1.05-.13-.334-.298-.624-.51-.874-.214-.25-.465-.448-.75-.597-.286-.147-.59-.22-.91-.22-.358 0-.726.05-1.1.148-.37.098-.726.232-1.062.405-.335.17-.64.37-.92.6-.28.23-.5.472-.664.727v9.802h-2.62v-8.943c0-.368-.06-.72-.187-1.05-.13-.334-.303-.624-.523-.874-.222-.25-.476-.448-.762-.597-.288-.147-.59-.22-.91-.22-.337 0-.682.053-1.038.153-.356.103-.705.24-1.043.41-.34.173-.656.373-.948.597-.29.226-.534.466-.73.72v9.802h-2.617V38.666h.004z" fill="#C6C6C5"/>
</svg>
