<svg xmlns="http://www.w3.org/2000/svg" width="225.167" height="62.167">
    <path fill="#C6C6C5" d="M26.37 20.105v15.902c0 2.807-.557 5.06-1.668 6.758-1.112 1.695-2.497 2.543-4.154 2.543-1.415 0-2.44-.27-3.078-.805-.637-.535-.965-1.44-.986-2.713.142-.547.688-.818 1.637-.818.446 0 .942.06 1.487.18.1 1.16.227 1.93.378 2.31.152.382.43.57.834.57.89 0 1.495-.58 1.818-1.74.324-1.157.486-2.978.486-5.46V16.5l-2.76-.302c-.08-.312-.08-.696 0-1.153 1.112.06 2.366.09 3.76.09 1.8 0 3.427-.03 4.883-.09.12.373.12.748 0 1.122l-2.517.394c-.08.77-.12 1.95-.12 3.545zM30.46 40.25V24.345c0-2.807.556-5.058 1.667-6.757 1.112-1.695 2.497-2.543 4.154-2.543 1.416 0 2.442.27 3.08.804.636.535.964 1.44.985 2.712-.142.547-.688.82-1.637.82-.445 0-.94-.06-1.486-.18-.1-1.162-.227-1.932-.378-2.313-.152-.38-.43-.57-.834-.57-.89 0-1.496.578-1.82 1.738-.323 1.16-.485 2.98-.485 5.46v20.333l2.76.304c.08.31.08.695 0 1.152-1.112-.06-2.366-.092-3.76-.092-1.8 0-3.427.03-4.883.092-.12-.373-.12-.748 0-1.123l2.517-.393c.08-.765.12-1.947.12-3.54z"/>
    <path fill="none" d="M44.91 29.715h181.296v35.762H44.91z"/>
    <path d="M58.775 43.02c.226.146.398.4.518.757-1.847 1.727-3.72 2.59-5.62 2.59-1.3 0-2.437-.236-3.406-.707-.97-.47-1.773-1.096-2.41-1.873-.64-.777-1.114-1.66-1.426-2.648-.31-.99-.467-2.005-.467-3.04 0-1.05.18-2.074.538-3.078.36-1.002.884-1.898 1.575-2.69.69-.79 1.544-1.423 2.56-1.902s2.175-.718 3.477-.718c1.713 0 3.307.4 4.782 1.196v3.825c-.24.04-.452.06-.638.06-.2 0-.366-.02-.498-.06l-.638-3.327c-.81-.53-1.893-.797-3.248-.797-.836 0-1.59.187-2.26.566-.672.38-1.243.89-1.714 1.535-.472.646-.833 1.4-1.086 2.272-.252.87-.378 1.795-.378 2.78 0 1.048.123 2.017.37 2.907.245.89.593 1.66 1.045 2.31s1 1.16 1.643 1.525 1.365.547 2.162.547c.957 0 1.88-.186 2.77-.56.89-.37 1.673-.862 2.35-1.47zM68.936 29.71c1.3 0 2.47.234 3.506.7s1.873 1.084 2.51 1.86c.638.778 1.126 1.642 1.464 2.59.34.952.508 1.944.508 2.98 0 2.39-.75 4.41-2.25 6.057-1.502 1.648-3.415 2.47-5.74 2.47-1.288 0-2.45-.23-3.486-.696-1.036-.464-1.873-1.085-2.51-1.862-.637-.775-1.125-1.637-1.464-2.58-.338-.94-.508-1.924-.508-2.947 0-1.526.335-2.94 1.006-4.243.67-1.3 1.62-2.348 2.85-3.138 1.228-.794 2.6-1.19 4.114-1.19zm-.02 15.56c1.25 0 2.308-.36 3.178-1.085.87-.723 1.494-1.637 1.873-2.738.378-1.104.567-2.332.567-3.686 0-1.288-.19-2.44-.567-3.456-.38-1.016-1-1.854-1.863-2.512-.863-.657-1.926-.985-3.188-.985-1.82 0-3.2.664-4.144 1.993-.943 1.328-1.415 2.988-1.415 4.98 0 1.367.186 2.6.558 3.695.372 1.096.99 2.002 1.853 2.72.863.72 1.913 1.076 3.148 1.076zM91.668 40.632v-7.2c0-1.046-.026-1.823-.08-2.327l-1.853-.238c-.08-.246-.08-.492 0-.737.836.04 1.646.06 2.43.06.864 0 1.668-.026 2.412-.08.053.3.053.553 0 .758l-1.813.198V45.97h-1.056L82.922 34.09c-.412-.543-.896-1.254-1.454-2.13.066.61.1 1.345.1 2.206v8.54c0 1.048.026 1.823.08 2.325l1.853.238c.08.247.08.493 0 .74-1.14-.028-1.95-.042-2.43-.042-.784 0-1.587.02-2.41.06-.054-.298-.054-.552 0-.757l1.812-.196V33.37c0-1.046-.026-1.82-.08-2.324l-1.653-.238c-.08-.232-.08-.465 0-.697h3.904l7.99 10.878c.105.146.22.318.348.518.126.2.266.44.418.72.152.276.275.49.37.636-.07-.796-.102-1.54-.102-2.23zM98.562 44.578c.77.53 1.853.793 3.248.793.943 0 1.65-.27 2.122-.813.47-.543.708-1.19.708-1.947 0-.396-.034-.73-.1-1.002-.067-.27-.21-.58-.43-.924-.218-.344-.566-.69-1.045-1.033-.478-.343-1.103-.708-1.873-1.09-.903-.454-1.634-.878-2.19-1.276-.56-.398-.978-.81-1.256-1.236-.28-.424-.465-.83-.558-1.215s-.14-.863-.14-1.434c0-1.17.47-2.077 1.405-2.72.937-.646 2.042-.968 3.317-.968 1.58 0 3.108.4 4.583 1.196v3.825c-.452.08-.83.08-1.136 0l-.638-3.447c-.85-.465-1.8-.697-2.85-.697-.704 0-1.298.208-1.783.627-.485.418-.728 1.006-.728 1.762 0 .425.026.757.08.995.052.24.185.52.397.848.212.326.564.65 1.056.977.49.326 1.15.688 1.973 1.086 2.842 1.38 4.263 3.027 4.263 4.94 0 1.355-.52 2.45-1.555 3.288-1.036.836-2.39 1.254-4.064 1.254-1.66 0-3.187-.39-4.582-1.176v-3.824c.452-.08.83-.08 1.136 0l.638 3.21zM121.154 40.908v-9.92l-1.613-.2v-.738c.73.054 1.402.08 2.013.08.505 0 1.183-.02 2.033-.06v.717l-1.256.24c-.053.504-.08 1.28-.08 2.33v7.432c-.053 1.886-.498 3.286-1.334 4.202-.837.918-2.305 1.375-4.403 1.375-3.958 0-5.937-1.8-5.937-5.398v-9.983l-1.614-.2c-.053-.198-.053-.443 0-.736.73.055 1.64.08 2.73.08.968 0 1.885-.02 2.748-.06.08.24.08.48 0 .718l-1.653.24c-.053.504-.08 1.28-.08 2.33v7.61c0 1.49.345 2.548 1.036 3.18s1.833.944 3.427.944c1.5 0 2.54-.328 3.118-.986.577-.657.866-1.724.866-3.198zM128.307 45.968l-2.85.06c-.08-.23-.08-.464 0-.696l1.654-.22c.054-.68.08-1.462.08-2.355v-11.77l-1.613-.2c-.053-.2-.053-.444 0-.737.73.054 1.64.08 2.73.08.97 0 1.885-.02 2.748-.06.08.24.08.478 0 .717l-1.653.24c-.054.505-.08 1.283-.08 2.333v11.61h6.575l.936-3.624c.2-.053.445-.053.738 0l-.02 4.62h-9.243zM136.675 30.11h13.766l.022 4.622c-.292.053-.538.053-.737 0l-.936-3.625h-4.146v13.965l2.012.2c.053.204.053.458 0 .757-.836-.042-1.846-.062-3.027-.062-.918 0-1.935.014-3.05.04-.08-.245-.08-.49 0-.737l1.854-.237c.053-.506.08-1.28.08-2.332V31.107h-4.186l-.936 3.625c-.2.054-.445.054-.737 0l.02-4.62zM155.78 33.353v11.72l1.614.198c.053.206.053.46 0 .76-.836-.042-1.746-.062-2.73-.062-.717 0-1.634.014-2.75.04-.08-.245-.08-.49 0-.737l1.655-.237c.052-.504.078-1.28.078-2.328v-11.72l-1.614-.198c-.053-.2-.053-.444 0-.737.73.054 1.64.08 2.73.08.97 0 1.885-.02 2.748-.06.08.24.08.478 0 .717l-1.652.24c-.053.503-.08 1.28-.08 2.326zM172.336 40.632v-7.2c0-1.046-.026-1.823-.08-2.327l-1.853-.238c-.08-.246-.08-.492 0-.737.837.04 1.646.06 2.432.06.862 0 1.666-.026 2.41-.08.053.3.053.553 0 .758l-1.812.198V45.97h-1.057L163.59 34.09c-.41-.543-.896-1.254-1.454-2.13.066.61.1 1.345.1 2.206v8.54c0 1.048.026 1.823.08 2.325l1.852.238c.08.247.08.493 0 .74-1.142-.028-1.95-.042-2.43-.042-.784 0-1.588.02-2.41.06-.055-.298-.055-.552 0-.757l1.812-.196V33.37c0-1.046-.027-1.82-.08-2.324l-1.653-.238c-.08-.232-.08-.465 0-.697h3.905L171.3 40.99c.106.146.223.318.35.518.125.2.266.44.418.72.152.276.275.49.37.636-.068-.796-.102-1.54-.102-2.23zM189.51 46.328l-.52-1.635c-1.54 1.117-3.026 1.674-4.462 1.674-1.3 0-2.438-.236-3.406-.707-.97-.47-1.773-1.096-2.41-1.873-.64-.777-1.113-1.66-1.425-2.648-.312-.99-.468-2.005-.468-3.04 0-1.05.18-2.074.546-3.078.365-1.002.903-1.896 1.614-2.68.71-.784 1.577-1.417 2.6-1.903 1.022-.485 2.192-.73 3.507-.73 1.833 0 3.52.4 5.06 1.197v3.825c-.238.04-.45.06-.637.06-.2 0-.365-.02-.498-.06l-.638-3.327c-.85-.53-2.025-.797-3.526-.797-.837 0-1.594.188-2.27.567-.68.38-1.264.89-1.755 1.535-.492.645-.87 1.4-1.136 2.27-.266.87-.398 1.796-.398 2.78 0 1.05.12 2.018.367 2.908s.595 1.66 1.047 2.31c.45.65 1 1.16 1.643 1.526.645.365 1.365.547 2.162.547 1.288 0 2.556-.35 3.805-1.056v-4.242l-1.614-.2c-.025-.065-.038-.173-.038-.32v-.198c0-.066.013-.14.04-.22.37.028.78.048 1.225.062s.946.02 1.505.02c.97 0 1.885-.02 2.75-.06.04.12.06.24.06.358s-.02.238-.06.36l-1.654.237c-.027.253-.047.573-.06.958s-.02.844-.02 1.375v2.012l-.2 2.19c-.053.026-.106.04-.16.04h-.378s-.133-.012-.2-.037z" fill="#C6C6C5"/>
</svg>
