<svg xmlns="http://www.w3.org/2000/svg" width="225.167" height="62.167">
    <path fill="none" d="M35.672 51.432c.87.438 1.876.655 3.026.655.862 0 1.614-.112 2.257-.338.644-.23 1.165-.546 1.565-.958.254-.263.45-.565.623-.887h-9.52c.6.626 1.28 1.137 2.05 1.527z"/>
    <path fill="#C6C6C5" d="M54 11.16H8.15v38.746h21.14l-.166-5.82h1.518c.312 1.125.677 2.142 1.096 3.045.42.907.97 1.753 1.66 2.54.072.083.15.157.228.236h9.52c.097-.184.196-.365.267-.568.193-.558.29-1.196.29-1.924 0-1.062-.3-2.054-.9-2.974-.6-.92-1.492-1.614-2.678-2.092-.813-.322-1.743-.68-2.792-1.072s-1.956-.762-2.717-1.11c-1.5-.674-2.664-1.558-3.494-2.65-.83-1.092-1.246-2.52-1.246-4.278 0-1.012.206-1.955.618-2.828.412-.875 1-1.655 1.76-2.342.725-.65 1.58-1.158 2.568-1.525.986-.37 2.017-.553 3.092-.553 1.224 0 2.32.188 3.29.562.966.375 1.85.812 2.65 1.312l.768-1.274h1.5l.15 8.827h-1.52c-.274-1.014-.583-1.98-.926-2.904-.344-.924-.79-1.762-1.34-2.51-.537-.725-1.193-1.304-1.967-1.734-.776-.433-1.725-.648-2.85-.648-1.187 0-2.198.382-3.035 1.143-.837.762-1.255 1.693-1.255 2.792 0 1.147.268 2.103.806 2.856.536.756 1.317 1.377 2.342 1.863.91.438 1.808.814 2.69 1.135.878.317 1.73.66 2.556 1.022.75.325 1.47.692 2.165 1.104.688.41 1.29.89 1.804 1.44.562.625.977 1.31 1.246 2.053.27.74.403 1.605.403 2.594 0 1.628-.427 3.052-1.26 4.283H54V11.16z"/>
    <path d="M62.684 43.686c.05.647.204 1.242.462 1.784.26.544.598 1.017 1.015 1.412.42.396.898.707 1.442.928.545.22 1.12.328 1.727.328.44 0 .875-.057 1.307-.174.432-.12.817-.303 1.162-.553.342-.25.618-.57.83-.97.21-.395.315-.88.315-1.447 0-.55-.157-1.015-.47-1.402-.315-.388-.726-.726-1.236-1.015-.51-.287-1.09-.552-1.743-.785l-1.99-.722c-.677-.245-1.34-.517-1.993-.815-.65-.3-1.232-.658-1.742-1.074-.51-.417-.922-.91-1.235-1.478-.312-.572-.47-1.25-.47-2.043 0-.768.16-1.458.48-2.073.318-.617.76-1.14 1.33-1.566.57-.427 1.25-.752 2.043-.984.793-.23 1.666-.345 2.617-.345 1.235 0 2.284.185 3.146.552.862.368 1.57.84 2.124 1.41.554.574.965 1.208 1.236 1.896.27.69.423 1.355.463 1.992H70.36c-.05-.6-.178-1.13-.39-1.597-.21-.465-.49-.854-.838-1.168-.348-.313-.752-.55-1.213-.715-.462-.16-.96-.24-1.5-.24-.403 0-.797.048-1.185.145-.387.098-.735.248-1.044.453-.308.207-.557.465-.748.78-.19.313-.287.69-.287 1.132 0 .588.157 1.088.47 1.5.314.41.724.77 1.228 1.07.504.305 1.082.575 1.735.81.652.235 1.317.476 2 .714.683.24 1.346.504 2 .787.65.282 1.23.628 1.735 1.036.505.405.913.89 1.227 1.446.313.56.47 1.23.47 2.017 0 .92-.163 1.728-.492 2.423-.33.695-.793 1.275-1.396 1.742-.603.465-1.326.814-2.168 1.05-.843.237-1.772.355-2.792.355-1.058 0-2.046-.154-2.962-.462-.917-.312-1.714-.748-2.397-1.315-.68-.567-1.22-1.258-1.616-2.073-.397-.812-.61-1.728-.64-2.75h3.13v.006h-.003zM79.15 31.205v12.42c0 .708.12 1.335.358 1.884.24.55.553 1.01.942 1.372.387.37.822.648 1.308.84.484.19.972.287 1.462.287.53 0 1.05-.09 1.565-.26.516-.17.978-.436 1.39-.794.412-.356.745-.808 1-1.353.255-.544.38-1.188.38-1.935V31.205h3.118v12.35c0 1.087-.22 2.05-.662 2.888-.438.837-1.016 1.54-1.725 2.11-.71.567-1.508.997-2.397 1.292-.887.295-1.775.44-2.668.44-.853 0-1.703-.146-2.552-.435-.848-.288-1.613-.717-2.3-1.285s-1.243-1.277-1.668-2.124c-.427-.846-.64-1.83-.64-2.945v-12.29h3.09zM92.583 31.205h7.453c.98 0 1.846.16 2.594.48.75.32 1.382.732 1.897 1.248.514.514.904 1.093 1.168 1.734.264.643.397 1.28.397 1.918 0 .695-.135 1.367-.404 2.015-.27.646-.662 1.224-1.177 1.73-.513.5-1.145.906-1.895 1.208-.75.305-1.61.457-2.58.457h-4.35v7.776h-3.102V31.206zm3.103 8.66h4.352c.392 0 .77-.087 1.13-.258.364-.172.68-.408.95-.706.27-.3.485-.646.647-1.05.162-.403.242-.833.242-1.295 0-.45-.075-.868-.23-1.257-.15-.387-.358-.72-.623-.998-.264-.28-.58-.502-.94-.664-.363-.163-.756-.242-1.176-.242h-4.352v6.47zM107.974 31.205h7.453c.98 0 1.846.16 2.595.48.75.32 1.382.732 1.896 1.248.515.514.903 1.093 1.17 1.734.265.643.396 1.28.396 1.918 0 .695-.136 1.367-.403 2.015-.27.646-.66 1.224-1.176 1.73-.515.5-1.146.906-1.897 1.208-.748.305-1.608.457-2.578.457h-4.353v7.776h-3.103V31.206zm3.1 8.66h4.353c.392 0 .77-.087 1.13-.258.362-.172.68-.408.948-.706.27-.3.486-.646.647-1.05.162-.403.243-.833.243-1.295 0-.45-.076-.868-.23-1.257-.15-.387-.36-.72-.624-.998-.264-.28-.577-.502-.94-.664-.36-.163-.754-.242-1.176-.242h-4.35v6.47zM126.45 31.205v16.363h9.115v2.203h-12.202V31.206h3.088zM150.69 31.205v2.192h-10.157v5.688h9.555v2.19h-9.555v6.304h10.613v2.19h-13.714V31.205h13.26zM156.67 31.205l5.31 13.98 5.365-13.98h3.56V49.77h-3.073V36.954l-4.908 12.818h-2.03l-4.687-12.817V49.77h-3.088V31.206h3.55zM186.173 31.205v2.192h-10.156v5.688h9.554v2.19h-9.553v6.304h10.613v2.19h-13.715V31.205h13.258zM192.158 31.205l8.232 13.953V31.205h3.072V49.77h-3.603L191.64 35.81V49.77h-3.088V31.206h3.604zM220.483 31.205v2.192h-5.997V49.77h-3.072V33.398H205.4v-2.19h15.083v-.002z" fill="#C6C6C5"/>
</svg>
