<svg xmlns="http://www.w3.org/2000/svg" width="247.508" height="32">
    <path fill="#2D2E33" d="M9.905 10.103h2.164l4.86 9.34 4.82-9.34h2.184v13.29h-1.71l-.017-10.614-4.728 9.207h-1.12l-4.766-9.208v10.613h-1.69v-13.29zM37.442 10.88c1.07.596 1.914 1.408 2.535 2.44.62 1.03.93 2.166.93 3.407 0 1.24-.31 2.383-.93 3.428-.62 1.044-1.466 1.865-2.535 2.47-1.07.6-2.244.9-3.522.9-1.28 0-2.452-.302-3.52-.9-1.07-.605-1.916-1.426-2.536-2.47-.62-1.045-.93-2.188-.93-3.428 0-1.24.31-2.375.93-3.408.62-1.033 1.46-1.845 2.525-2.44 1.062-.595 2.24-.892 3.53-.892 1.278 0 2.452.298 3.522.892zm-6.076 1.425c-.79.455-1.42 1.072-1.89 1.85-.467.78-.7 1.637-.7 2.573s.233 1.797.7 2.582c.47.783 1.1 1.407 1.89 1.87.79.462 1.648.69 2.572.69s1.775-.228 2.554-.69c.78-.463 1.398-1.087 1.86-1.87.462-.785.693-1.646.693-2.582 0-.937-.23-1.794-.693-2.572-.46-.778-1.08-1.396-1.86-1.85-.778-.457-1.63-.685-2.554-.685s-1.78.23-2.572.685zM52.486 23.393l-2.64-4.178c-.303.025-.55.037-.74.037h-3.38v4.14h-1.82v-13.29h5.2c1.683 0 2.984.39 3.9 1.168.92.78 1.378 1.882 1.378 3.313 0 1.076-.25 1.98-.75 2.714s-1.218 1.266-2.155 1.596l3.093 4.5h-2.087zm-3.38-5.793c1.14 0 2.013-.248 2.62-.748.608-.5.912-1.237.912-2.21 0-.95-.304-1.668-.91-2.156-.61-.486-1.482-.73-2.62-.73h-3.38V17.6h3.38zM67.2 16.898h1.612v4.877c-.67.533-1.455.957-2.354 1.273-.9.315-1.792.475-2.676.475-1.28 0-2.45-.3-3.513-.9-1.064-.604-1.903-1.425-2.516-2.47-.614-1.044-.92-2.187-.92-3.427 0-1.24.31-2.375.93-3.408.62-1.032 1.467-1.844 2.543-2.44 1.076-.594 2.265-.89 3.57-.89.922 0 1.824.164 2.705.492.878.33 1.64.78 2.287 1.348l-1.045 1.33c-.532-.494-1.142-.877-1.83-1.15-.69-.27-1.397-.408-2.118-.408-.95 0-1.823.228-2.62.684-.797.456-1.427 1.076-1.89 1.86-.46.786-.69 1.646-.69 2.582 0 .938.232 1.8.7 2.592.47.79 1.1 1.418 1.9 1.88.796.463 1.668.692 2.618.692.557 0 1.124-.093 1.7-.274.576-.185 1.11-.44 1.604-.77V16.9zM82.517 23.393l-1.404-3.23h-7.005l-1.386 3.23h-1.917l5.904-13.29h1.897l5.885 13.29h-1.975zm-7.687-4.88h5.58l-2.808-6.455-2.772 6.454zM96.262 10.103h1.804v13.29h-1.842l-7.592-10.29v10.29H86.81v-13.29h1.84l7.612 10.308V10.104z"/>
    <path fill="#B49C86" d="M115.474 12.048c-.67-.297-1.36-.447-2.07-.447-.935 0-1.795.23-2.58.685-.786.456-1.407 1.073-1.86 1.85-.457.78-.683 1.637-.683 2.574 0 .923.228 1.776.684 2.56.454.786 1.075 1.405 1.86 1.86.784.456 1.645.684 2.58.684.698 0 1.38-.143 2.052-.426.67-.285 1.267-.676 1.785-1.168l1.1 1.195c-.67.657-1.448 1.173-2.334 1.547-.885.372-1.783.56-2.694.56-1.267 0-2.424-.3-3.475-.9-1.05-.603-1.88-1.42-2.486-2.458-.607-1.038-.91-2.184-.91-3.438 0-1.24.306-2.375.92-3.408.612-1.032 1.453-1.844 2.516-2.44 1.063-.594 2.233-.89 3.512-.89.922 0 1.82.173 2.687.52.865.35 1.615.84 2.25 1.473l-1.083 1.31c-.508-.53-1.097-.944-1.768-1.242zM130.29 10.88c1.07.596 1.916 1.408 2.537 2.44.616 1.03.93 2.166.93 3.407 0 1.24-.313 2.383-.93 3.428-.62 1.044-1.468 1.865-2.536 2.47-1.07.6-2.24.9-3.52.9-1.278 0-2.453-.302-3.522-.9-1.07-.605-1.914-1.426-2.534-2.47-.62-1.045-.93-2.188-.93-3.428 0-1.24.31-2.375.93-3.408.62-1.033 1.462-1.845 2.524-2.44 1.063-.595 2.242-.892 3.533-.892 1.28 0 2.45.298 3.52.892zm-6.075 1.425c-.79.455-1.42 1.072-1.888 1.85-.468.78-.7 1.637-.7 2.573s.232 1.797.7 2.582c.468.783 1.097 1.407 1.888 1.87.79.462 1.65.69 2.574.69s1.772-.228 2.552-.69c.777-.463 1.398-1.087 1.86-1.87.463-.785.692-1.646.692-2.582 0-.937-.23-1.794-.693-2.572-.46-.778-1.08-1.396-1.858-1.85-.78-.457-1.63-.685-2.553-.685s-1.784.23-2.575.685zM146.21 10.103h1.804v13.29h-1.842l-7.594-10.29v10.29h-1.82v-13.29h1.84l7.61 10.308V10.104zM158.046 11.99c-.665-.195-1.274-.293-1.832-.293-.772 0-1.39.15-1.853.446-.46.297-.69.706-.69 1.225 0 .468.14.85.418 1.15.278.296.62.53 1.025.7.404.172.968.37 1.688.6.897.278 1.63.543 2.184.796.558.254 1.033.63 1.426 1.13s.587 1.16.587 1.982c0 .76-.205 1.424-.615 1.994-.41.57-.987 1.01-1.73 1.318-.738.312-1.59.466-2.552.466-.975 0-1.925-.188-2.848-.57-.925-.378-1.723-.885-2.393-1.518l.814-1.576c.634.62 1.345 1.1 2.136 1.435s1.56.502 2.306.502c.888 0 1.585-.174 2.1-.52s.77-.82.77-1.415c0-.468-.14-.854-.42-1.158-.275-.304-.628-.543-1.052-.72-.425-.178-.998-.375-1.72-.59-.885-.267-1.604-.524-2.163-.776-.557-.255-1.028-.627-1.412-1.122-.387-.494-.58-1.145-.58-1.956 0-.708.196-1.335.59-1.88.393-.543.94-.96 1.65-1.252.71-.29 1.53-.437 2.468-.437.797 0 1.578.12 2.346.353.765.234 1.445.547 2.04.94l-.76 1.632c-.618-.394-1.262-.688-1.926-.884zM166.837 20.838c.677.69 1.608 1.034 2.8 1.034 1.178 0 2.102-.345 2.77-1.034.672-.69 1.01-1.646 1.01-2.876v-7.86h1.82v7.86c0 1.733-.496 3.095-1.49 4.08-.994.987-2.363 1.48-4.11 1.48-1.758 0-3.14-.493-4.138-1.48-1.002-.985-1.502-2.347-1.502-4.08v-7.86h1.823v7.86c0 1.227.338 2.186 1.017 2.876zM179.128 10.103h1.823V21.74h5.81v1.65h-7.632V10.103zM187.746 10.103h10.385v1.67h-4.29v11.62h-1.822v-11.62h-4.27l-.002-1.67zM200.6 10.103h1.82v13.29h-1.82v-13.29zM216.05 10.103h1.804v13.29h-1.842l-7.592-10.29v10.29h-1.822v-13.29h1.842l7.61 10.308V10.104zM231.236 16.898h1.615v4.877c-.67.533-1.454.957-2.353 1.273-.9.315-1.793.475-2.677.475-1.278 0-2.45-.3-3.514-.9-1.062-.604-1.902-1.425-2.516-2.47-.614-1.044-.92-2.187-.92-3.427 0-1.24.31-2.375.93-3.408.62-1.032 1.467-1.844 2.543-2.44 1.076-.594 2.266-.89 3.57-.89.922 0 1.824.164 2.705.492.88.33 1.64.78 2.285 1.348l-1.043 1.33c-.532-.494-1.142-.877-1.832-1.15-.69-.27-1.396-.408-2.116-.408-.95 0-1.823.228-2.62.684s-1.425 1.076-1.89 1.86c-.46.786-.69 1.646-.69 2.582 0 .938.232 1.8.7 2.592.47.79 1.103 1.418 1.9 1.88.796.463 1.67.692 2.618.692.557 0 1.123-.093 1.7-.274.575-.185 1.11-.44 1.603-.77V16.9h.003z"/>
</svg>
