<svg xmlns="http://www.w3.org/2000/svg" width="80" height="60" viewBox="0 0 80 60">
    <path fill="#b7a088" d="M39 11h2v38h-2z"/>
    <circle cx="40" cy="30" r="25" fill="none" stroke="#b7a088" stroke-width="2" stroke-linecap="square" stroke-miterlimit="10"/>
    <path fill="none" stroke="#b7a088" stroke-width="2.4" stroke-linecap="square" stroke-miterlimit="10" d="M32.19 41.17c.16.17.37.39.64.65.27.27.6.55.98.85.38.3.84.58 1.39.85.55.27 1.17.49 1.87.66.7.17 1.5.25 2.4.25 1.32 0 2.5-.21 3.52-.63 1.03-.42 1.9-.99 2.62-1.71.71-.71 1.26-1.55 1.63-2.5.37-.96.56-1.97.56-3.05 0-.9-.14-1.67-.42-2.33-.28-.65-.66-1.22-1.13-1.69-.48-.47-1.03-.87-1.67-1.21-.63-.34-1.31-.63-2.03-.9-.72-.26-1.46-.51-2.21-.73-.75-.23-1.48-.47-2.21-.74-.72-.27-1.4-.58-2.03-.93-.63-.35-1.19-.77-1.66-1.26-.48-.5-.85-1.09-1.13-1.78-.28-.69-.42-1.5-.42-2.44 0-.91.17-1.79.51-2.62.34-.84.84-1.58 1.49-2.22s1.46-1.15 2.42-1.53c.96-.38 2.06-.57 3.3-.57 1.39 0 2.62.22 3.69.67 1.07.45 2.07 1.16 3.01 2.15"/>
</svg>
